<?xml version="1.0" encoding="UTF-8" standalone="no"?>
<!-- Generated by graphviz version 2.40.1 (20161225.0304)
 -->

<!-- Title: %0 Pages: 1 -->

<svg
   xmlns:dc="http://purl.org/dc/elements/1.1/"
   xmlns:cc="http://creativecommons.org/ns#"
   xmlns:rdf="http://www.w3.org/1999/02/22-rdf-syntax-ns#"
   xmlns:svg="http://www.w3.org/2000/svg"
   xmlns="http://www.w3.org/2000/svg"
   xmlns:sodipodi="http://sodipodi.sourceforge.net/DTD/sodipodi-0.dtd"
   xmlns:inkscape="http://www.inkscape.org/namespaces/inkscape"
   width="811pt"
   height="175pt"
   viewBox="0.00 0.00 811.10 174.60"
   version="1.1"
   id="svg265"
   sodipodi:docname="example-main-informal.svg"
   inkscape:version="0.92.5 (2060ec1f9f, 2020-04-08)">
  <metadata
     id="metadata271">
    <rdf:RDF>
      <cc:Work
         rdf:about="">
        <dc:format>image/svg+xml</dc:format>
        <dc:type
           rdf:resource="http://purl.org/dc/dcmitype/StillImage" />
      </cc:Work>
    </rdf:RDF>
  </metadata>
  <defs
     id="defs269" />
  <sodipodi:namedview
     pagecolor="#ffffff"
     bordercolor="#666666"
     borderopacity="1"
     objecttolerance="10"
     gridtolerance="10"
     guidetolerance="10"
     inkscape:pageopacity="0"
     inkscape:pageshadow="2"
     inkscape:window-width="1920"
     inkscape:window-height="1044"
     id="namedview267"
     showgrid="false"
     inkscape:zoom="0.86317597"
     inkscape:cx="628.25775"
     inkscape:cy="80.937471"
     inkscape:window-x="0"
     inkscape:window-y="120"
     inkscape:window-maximized="1"
     inkscape:current-layer="svg265" />
  <g
     id="graph0"
     class="graph"
     transform="scale(1 1) rotate(0) translate(4 170.6)">
    <title
       id="title2">%0</title>
    <!-- e0 -->
    <g
       id="node1"
       class="node">
      <title
         id="title6">e0</title>
      <path
         fill="none"
         stroke="#000000"
         d="M12,-92.5C12,-92.5 42,-92.5 42,-92.5 48,-92.5 54,-98.5 54,-104.5 54,-104.5 54,-130.1 54,-130.1 54,-136.1 48,-142.1 42,-142.1 42,-142.1 12,-142.1 12,-142.1 6,-142.1 0,-136.1 0,-130.1 0,-130.1 0,-104.5 0,-104.5 0,-98.5 6,-92.5 12,-92.5"
         id="path8" />
      <text
         x="15.3303"
         y="-113.1"
         font-size="14.00"
         id="text10"
         style="font-size:14px;font-family:Times, serif;text-anchor:middle;fill:#000000">$\alpha$</text>
      <polyline
         fill="none"
         stroke="#000000"
         points="30.6606,-92.5 30.6606,-142.1 "
         id="polyline12" />
      <text
         text-anchor="middle"
         x="41.9106"
         y="-125.5"
         font-family="Times,serif"
         font-size="14.00"
         fill="#000000"
         id="text14" />
      <polyline
         fill="none"
         stroke="#000000"
         points="30.6606,-117.3 53.1606,-117.3 "
         id="polyline16" />
      <text
         text-anchor="middle"
         x="41.9106"
         y="-100.7"
         font-family="Times,serif"
         font-size="14.00"
         fill="#000000"
         id="text18" />
    </g>
    <!-- v0_t0_e4_s0 -->
    <g
       id="node7"
       class="node">
      <title
         id="title21">v0_t0_e4_s0</title>
      <ellipse
         fill="#000000"
         stroke="#000000"
         cx="93.5"
         cy="-140.3"
         rx="3.5"
         ry="3.5"
         id="ellipse23" />
    </g>
    <!-- e0&#45;&gt;v0_t0_e4_s0 -->
    <g
       id="edge1"
       class="edge">
      <title
         id="title26">e0:e-&gt;v0_t0_e4_s0:w</title>
      <path
         fill="none"
         stroke="#000000"
         d="M58.1479,-129.666C70.917,-131.5747 74.7206,-140.3 90,-140.3"
         id="path28" />
      <polygon
         fill="#000000"
         stroke="#000000"
         points="53,-129.3 58.147,-127.4103 55.4937,-129.4773 57.9874,-129.6547 57.9874,-129.6547 57.9874,-129.6547 55.4937,-129.4773 57.8278,-131.899 53,-129.3 53,-129.3"
         id="polygon30" />
    </g>
    <!-- v0_t1_e20_s1 -->
    <g
       id="node8"
       class="node">
      <title
         id="title33">v0_t1_e20_s1</title>
      <ellipse
         fill="#000000"
         stroke="#000000"
         cx="175.2749"
         cy="-88.3"
         rx="3.5"
         ry="3.5"
         id="ellipse35" />
    </g>
    <!-- e0&#45;&gt;v0_t1_e20_s1 -->
    <g
       id="edge2"
       class="edge">
      <title
         id="title38">e0:e-&gt;v0_t1_e20_s1:w</title>
      <path
         fill="none"
         stroke="#000000"
         d="M58.1572,-105.245C106.953,-104.1898 119.9314,-88.3 171.2749,-88.3"
         id="path40" />
      <polygon
         fill="#000000"
         stroke="#000000"
         points="53,-105.3 57.9757,-102.9967 55.4999,-105.2733 57.9997,-105.2466 57.9997,-105.2466 57.9997,-105.2466 55.4999,-105.2733 58.0237,-107.4965 53,-105.3 53,-105.3"
         id="polygon42" />
    </g>
    <!-- e4 -->
    <g
       id="node2"
       class="node">
      <title
         id="title45">e4</title>
      <path
         fill="none"
         stroke="#000000"
         d="M145,-110.5C145,-110.5 205.5498,-110.5 205.5498,-110.5 211.5498,-110.5 217.5498,-116.5 217.5498,-122.5 217.5498,-122.5 217.5498,-148.1 217.5498,-148.1 217.5498,-154.1 211.5498,-160.1 205.5498,-160.1 205.5498,-160.1 145,-160.1 145,-160.1 139,-160.1 133,-154.1 133,-148.1 133,-148.1 133,-122.5 133,-122.5 133,-116.5 139,-110.5 145,-110.5"
         id="path47" />
      <text
         text-anchor="middle"
         x="142.75"
         y="-143.5"
         font-family="Times,serif"
         font-size="14.00"
         fill="#000000"
         id="text49" />
      <polyline
         fill="none"
         stroke="#000000"
         points="133,-135.3 152.5,-135.3 "
         id="polyline51" />
      <text
         text-anchor="middle"
         x="142.75"
         y="-118.7"
         font-family="Times,serif"
         font-size="14.00"
         fill="#000000"
         id="text53" />
      <polyline
         fill="none"
         stroke="#000000"
         points="152.5,-110.5 152.5,-160.1 "
         id="polyline55" />
      <text
         x="175.2749"
         y="-131.10001"
         font-size="14.00"
         id="text57"
         style="font-size:14px;font-family:Times, serif;text-anchor:middle;fill:#000000">$\nor$</text>
      <polyline
         fill="none"
         stroke="#000000"
         points="198.0498,-110.5 198.0498,-160.1 "
         id="polyline59" />
      <text
         text-anchor="middle"
         x="207.7998"
         y="-131.5"
         font-family="Times,serif"
         font-size="14.00"
         fill="#000000"
         id="text61" />
    </g>
    <!-- v4_t0_e7_s0 -->
    <g
       id="node9"
       class="node">
      <title
         id="title64">v4_t0_e7_s0</title>
      <ellipse
         fill="#000000"
         stroke="#000000"
         cx="257.0498"
         cy="-138.3"
         rx="3.5"
         ry="3.5"
         id="ellipse66" />
    </g>
    <!-- e4&#45;&gt;v4_t0_e7_s0 -->
    <g
       id="edge3"
       class="edge">
      <title
         id="title69">e4:e-&gt;v4_t0_e7_s0:w</title>
      <path
         fill="none"
         stroke="#000000"
         d="M222.4967,-135.4139C234.5393,-135.9619 239.2683,-138.3 253.5498,-138.3"
         id="path71" />
      <polygon
         fill="#000000"
         stroke="#000000"
         points="217.2749,-135.3 222.3228,-133.1597 219.7743,-135.3546 222.2737,-135.4092 222.2737,-135.4092 222.2737,-135.4092 219.7743,-135.3546 222.2246,-137.6586 217.2749,-135.3 217.2749,-135.3"
         id="polygon73" />
    </g>
    <!-- e7 -->
    <g
       id="node3"
       class="node">
      <title
         id="title76">e7</title>
      <path
         fill="none"
         stroke="#000000"
         d="M308.5498,-116.5C308.5498,-116.5 350.0498,-116.5 350.0498,-116.5 356.0498,-116.5 362.0498,-122.5 362.0498,-128.5 362.0498,-128.5 362.0498,-154.1 362.0498,-154.1 362.0498,-160.1 356.0498,-166.1 350.0498,-166.1 350.0498,-166.1 308.5498,-166.1 308.5498,-166.1 302.5498,-166.1 296.5498,-160.1 296.5498,-154.1 296.5498,-154.1 296.5498,-128.5 296.5498,-128.5 296.5498,-122.5 302.5498,-116.5 308.5498,-116.5"
         id="path78" />
      <text
         text-anchor="middle"
         x="306.2998"
         y="-137.5"
         font-family="Times,serif"
         font-size="14.00"
         fill="#000000"
         id="text80" />
      <polyline
         fill="none"
         stroke="#000000"
         points="316.0498,-116.5 316.0498,-166.1 "
         id="polyline82" />
      <text
         x="329.2998"
         y="-137.10001"
         font-size="14.00"
         id="text84"
         style="font-size:14px;font-family:Times, serif;text-anchor:middle;fill:#000000">$\fork$</text>
      <polyline
         fill="none"
         stroke="#000000"
         points="342.5498,-116.5 342.5498,-166.1 "
         id="polyline86" />
      <text
         text-anchor="middle"
         x="352.2998"
         y="-149.5"
         font-family="Times,serif"
         font-size="14.00"
         fill="#000000"
         id="text88" />
      <polyline
         fill="none"
         stroke="#000000"
         points="342.5498,-141.3 362.0498,-141.3 "
         id="polyline90" />
      <text
         text-anchor="middle"
         x="352.2998"
         y="-124.7"
         font-family="Times,serif"
         font-size="14.00"
         fill="#000000"
         id="text92" />
    </g>
    <!-- v7_t0_e34_s0 -->
    <g
       id="node10"
       class="node">
      <title
         id="title95">v7_t0_e34_s0</title>
      <ellipse
         fill="#000000"
         stroke="#000000"
         cx="483.3247"
         cy="-151.3"
         rx="3.5"
         ry="3.5"
         id="ellipse97" />
    </g>
    <!-- e7&#45;&gt;v7_t0_e34_s0 -->
    <g
       id="edge4"
       class="edge">
      <title
         id="title100">e7:e-&gt;v7_t0_e34_s0:w</title>
      <path
         fill="none"
         stroke="#000000"
         d="M367.1159,-153.2935C415.087,-153.1694 428.9258,-151.3 479.3247,-151.3"
         id="path102" />
      <polygon
         fill="#000000"
         stroke="#000000"
         points="362.0498,-153.3 367.0469,-151.0435 364.5498,-153.2968 367.0498,-153.2935 367.0498,-153.2935 367.0498,-153.2935 364.5498,-153.2968 367.0527,-155.5435 362.0498,-153.3 362.0498,-153.3"
         id="polygon104" />
    </g>
    <!-- v7_t1_e20_s0 -->
    <g
       id="node11"
       class="node">
      <title
         id="title107">v7_t1_e20_s0</title>
      <ellipse
         fill="#000000"
         stroke="#000000"
         cx="401.5498"
         cy="-120.3"
         rx="3.5"
         ry="3.5"
         id="ellipse109" />
    </g>
    <!-- e7&#45;&gt;v7_t1_e20_s0 -->
    <g
       id="edge5"
       class="edge">
      <title
         id="title112">e7:e-&gt;v7_t1_e20_s0:w</title>
      <path
         fill="none"
         stroke="#000000"
         d="M367.336,-128.9582C379.434,-127.3142 383.4901,-120.3 398.0498,-120.3"
         id="path114" />
      <polygon
         fill="#000000"
         stroke="#000000"
         points="362.0498,-129.3 366.8942,-126.732 364.5446,-129.1386 367.0394,-128.9773 367.0394,-128.9773 367.0394,-128.9773 364.5446,-129.1386 367.1846,-131.2226 362.0498,-129.3 362.0498,-129.3"
         id="polygon116" />
    </g>
    <!-- e20 -->
    <g
       id="node4"
       class="node">
      <title
         id="title119">e20</title>
      <path
         fill="none"
         stroke="#000000"
         d="M453.0498,-78.5C453.0498,-78.5 513.5996,-78.5 513.5996,-78.5 519.5996,-78.5 525.5996,-84.5 525.5996,-90.5 525.5996,-90.5 525.5996,-116.1 525.5996,-116.1 525.5996,-122.1 519.5996,-128.1 513.5996,-128.1 513.5996,-128.1 453.0498,-128.1 453.0498,-128.1 447.0498,-128.1 441.0498,-122.1 441.0498,-116.1 441.0498,-116.1 441.0498,-90.5 441.0498,-90.5 441.0498,-84.5 447.0498,-78.5 453.0498,-78.5"
         id="path121" />
      <text
         text-anchor="middle"
         x="450.7998"
         y="-111.5"
         font-family="Times,serif"
         font-size="14.00"
         fill="#000000"
         id="text123" />
      <polyline
         fill="none"
         stroke="#000000"
         points="441.0498,-103.3 460.5498,-103.3 "
         id="polyline125" />
      <text
         text-anchor="middle"
         x="450.7998"
         y="-86.7"
         font-family="Times,serif"
         font-size="14.00"
         fill="#000000"
         id="text127" />
      <polyline
         fill="none"
         stroke="#000000"
         points="460.5498,-78.5 460.5498,-128.1 "
         id="polyline129" />
      <text
         x="483.32471"
         y="-99.099998"
         font-size="14.00"
         id="text131"
         style="font-size:14px;font-family:Times, serif;text-anchor:middle;fill:#000000">$\nor$</text>
      <polyline
         fill="none"
         stroke="#000000"
         points="506.0996,-78.5 506.0996,-128.1 "
         id="polyline133" />
      <text
         text-anchor="middle"
         x="515.8496"
         y="-99.5"
         font-family="Times,serif"
         font-size="14.00"
         fill="#000000"
         id="text135" />
    </g>
    <!-- v20_t0_e23_s0 -->
    <g
       id="node12"
       class="node">
      <title
         id="title138">v20_t0_e23_s0</title>
      <ellipse
         fill="#000000"
         stroke="#000000"
         cx="565.0996"
         cy="-18.3"
         rx="3.5"
         ry="3.5"
         id="ellipse140" />
    </g>
    <!-- e20&#45;&gt;v20_t0_e23_s0 -->
    <g
       id="edge6"
       class="edge">
      <title
         id="title143">e20:e-&gt;v20_t0_e23_s0:w</title>
      <path
         fill="none"
         stroke="#000000"
         d="M530.5455,-102.7572C562.2893,-95.518 522.4508,-18.3 561.5996,-18.3"
         id="path145" />
      <polygon
         fill="#000000"
         stroke="#000000"
         points="525.3247,-103.3 530.0652,-100.5449 527.8113,-103.0414 530.2979,-102.7829 530.2979,-102.7829 530.2979,-102.7829 527.8113,-103.0414 530.5306,-105.0208 525.3247,-103.3 525.3247,-103.3"
         id="polygon147" />
    </g>
    <!-- e23 -->
    <g
       id="node5"
       class="node">
      <title
         id="title150">e23</title>
      <path
         fill="none"
         stroke="#000000"
         d="M616.5996,-.5C616.5996,-.5 658.0996,-.5 658.0996,-.5 664.0996,-.5 670.0996,-6.5 670.0996,-12.5 670.0996,-12.5 670.0996,-38.1 670.0996,-38.1 670.0996,-44.1 664.0996,-50.1 658.0996,-50.1 658.0996,-50.1 616.5996,-50.1 616.5996,-50.1 610.5996,-50.1 604.5996,-44.1 604.5996,-38.1 604.5996,-38.1 604.5996,-12.5 604.5996,-12.5 604.5996,-6.5 610.5996,-.5 616.5996,-.5"
         id="path152" />
      <text
         text-anchor="middle"
         x="614.3496"
         y="-21.5"
         font-family="Times,serif"
         font-size="14.00"
         fill="#000000"
         id="text154" />
      <polyline
         fill="none"
         stroke="#000000"
         points="624.0996,-.5 624.0996,-50.1 "
         id="polyline156" />
      <text
         x="637.34961"
         y="-21.1"
         font-size="14.00"
         id="text158"
         style="font-size:14px;font-family:Times, serif;text-anchor:middle;fill:#000000">$\fork$</text>
      <polyline
         fill="none"
         stroke="#000000"
         points="650.5996,-.5 650.5996,-50.1 "
         id="polyline160" />
      <text
         text-anchor="middle"
         x="660.3496"
         y="-33.5"
         font-family="Times,serif"
         font-size="14.00"
         fill="#000000"
         id="text162" />
      <polyline
         fill="none"
         stroke="#000000"
         points="650.5996,-25.3 670.0996,-25.3 "
         id="polyline164" />
      <text
         text-anchor="middle"
         x="660.3496"
         y="-8.7"
         font-family="Times,serif"
         font-size="14.00"
         fill="#000000"
         id="text166" />
    </g>
    <!-- v23_t1_e34_s1 -->
    <g
       id="node14"
       class="node">
      <title
         id="title169">v23_t1_e34_s1</title>
      <ellipse
         fill="#000000"
         stroke="#000000"
         cx="709.5996"
         cy="-40.3"
         rx="3.5"
         ry="3.5"
         id="ellipse171" />
    </g>
    <!-- e23&#45;&gt;v23_t1_e34_s1 -->
    <g
       id="edge8"
       class="edge">
      <title
         id="title174">e23:e-&gt;v23_t1_e34_s1:w</title>
      <path
         fill="none"
         stroke="#000000"
         d="M675.1313,-13.9674C689.5605,-18.1252 687.9746,-40.3 706.0996,-40.3"
         id="path176" />
      <polygon
         fill="#000000"
         stroke="#000000"
         points="670.0996,-13.3 675.3521,-11.7271 672.5779,-13.6288 675.0562,-13.9575 675.0562,-13.9575 675.0562,-13.9575 672.5779,-13.6288 674.7603,-16.188 670.0996,-13.3 670.0996,-13.3"
         id="polygon178" />
    </g>
    <!-- e34 -->
    <g
       id="node6"
       class="node">
      <title
         id="title181">e34</title>
      <path
         fill="none"
         stroke="#000000"
         d="M761.0996,-31.5C761.0996,-31.5 791.0996,-31.5 791.0996,-31.5 797.0996,-31.5 803.0996,-37.5 803.0996,-43.5 803.0996,-43.5 803.0996,-69.1 803.0996,-69.1 803.0996,-75.1 797.0996,-81.1 791.0996,-81.1 791.0996,-81.1 761.0996,-81.1 761.0996,-81.1 755.0996,-81.1 749.0996,-75.1 749.0996,-69.1 749.0996,-69.1 749.0996,-43.5 749.0996,-43.5 749.0996,-37.5 755.0996,-31.5 761.0996,-31.5"
         id="path183" />
      <text
         text-anchor="middle"
         x="761.3496"
         y="-64.5"
         font-family="Times,serif"
         font-size="14.00"
         fill="#000000"
         id="text185" />
      <polyline
         fill="none"
         stroke="#000000"
         points="749.0996,-56.3 773.5996,-56.3 "
         id="polyline187" />
      <text
         text-anchor="middle"
         x="761.3496"
         y="-39.7"
         font-family="Times,serif"
         font-size="14.00"
         fill="#000000"
         id="text189" />
      <polyline
         fill="none"
         stroke="#000000"
         points="773.5996,-31.5 773.5996,-81.1 "
         id="polyline191" />
      <text
         x="788.17987"
         y="-52.099998"
         font-size="14.00"
         id="text193"
         style="font-size:14px;font-family:Times, serif;text-anchor:middle;fill:#000000">$\omega$</text>
    </g>
    <!-- v0_t0_e4_s0&#45;&gt;e4 -->
    <g
       id="edge9"
       class="edge">
      <title
         id="title196">v0_t0_e4_s0:e-&gt;e4:w</title>
      <path
         fill="none"
         stroke="#000000"
         d="M97,-140.3C111.4954,-140.3 115.8717,-145.7555 127.9955,-147.0341"
         id="path198" />
      <polygon
         fill="#000000"
         stroke="#000000"
         points="133.2749,-147.3 128.168,-149.2956 130.7781,-147.1742 128.2812,-147.0484 128.2812,-147.0484 128.2812,-147.0484 130.7781,-147.1742 128.3944,-144.8013 133.2749,-147.3 133.2749,-147.3"
         id="polygon200" />
    </g>
    <!-- v0_t1_e20_s1&#45;&gt;e20 -->
    <g
       id="edge10"
       class="edge">
      <title
         id="title203">v0_t1_e20_s1:e-&gt;e20:w</title>
      <path
         fill="none"
         stroke="#000000"
         d="M179.2749,-88.3C294.0429,-88.3 323.9792,-91.2128 436.2619,-91.2981"
         id="path205" />
      <polygon
         fill="#000000"
         stroke="#000000"
         points="441.3247,-91.3 436.3238,-93.548 438.8247,-91.299 436.3247,-91.298 436.3247,-91.298 436.3247,-91.298 438.8247,-91.299 436.3256,-89.048 441.3247,-91.3 441.3247,-91.3"
         id="polygon207" />
    </g>
    <!-- v4_t0_e7_s0&#45;&gt;e7 -->
    <g
       id="edge11"
       class="edge">
      <title
         id="title210">v4_t0_e7_s0:e-&gt;e7:w</title>
      <path
         fill="none"
         stroke="#000000"
         d="M260.5498,-138.3C274.7238,-138.3 279.4158,-140.6381 291.3674,-141.1861"
         id="path212" />
      <polygon
         fill="#000000"
         stroke="#000000"
         points="296.5498,-141.3 291.5015,-143.4395 294.0504,-141.245 291.551,-141.19 291.551,-141.19 291.551,-141.19 294.0504,-141.245 291.6005,-138.9405 296.5498,-141.3 296.5498,-141.3"
         id="polygon214" />
    </g>
    <!-- v7_t0_e34_s0&#45;&gt;e34 -->
    <g
       id="edge12"
       class="edge">
      <title
         id="title217">v7_t0_e34_s0:e-&gt;e34:w</title>
      <path
         fill="none"
         stroke="#000000"
         d="M487.3247,-151.3C607.5893,-151.3 626.507,-70.7138 743.8025,-68.3529"
         id="path219" />
      <polygon
         fill="#000000"
         stroke="#000000"
         points="749.0996,-68.3 744.1224,-70.5999 746.5997,-68.325 744.0998,-68.35 744.0998,-68.35 744.0998,-68.35 746.5997,-68.325 744.0773,-66.1001 749.0996,-68.3 749.0996,-68.3"
         id="polygon221" />
    </g>
    <!-- v7_t1_e20_s0&#45;&gt;e20 -->
    <g
       id="edge13"
       class="edge">
      <title
         id="title224">v7_t1_e20_s0:e-&gt;e20:w</title>
      <path
         fill="none"
         stroke="#000000"
         d="M405.0498,-120.3C419.4172,-120.3 424.0046,-116.4032 436.0798,-115.4899"
         id="path226" />
      <polygon
         fill="#000000"
         stroke="#000000"
         points="441.3247,-115.3 436.4094,-117.7295 438.8263,-115.3905 436.328,-115.481 436.328,-115.481 436.328,-115.481 438.8263,-115.3905 436.2465,-113.2325 441.3247,-115.3 441.3247,-115.3"
         id="polygon228" />
    </g>
    <!-- v20_t0_e23_s0&#45;&gt;e23 -->
    <g
       id="edge14"
       class="edge">
      <title
         id="title231">v20_t0_e23_s0:e-&gt;e23:w</title>
      <path
         fill="none"
         stroke="#000000"
         d="M568.5996,-18.3C582.9891,-18.3 587.3258,-23.7555 599.3592,-25.0341"
         id="path233" />
      <polygon
         fill="#000000"
         stroke="#000000"
         points="604.5996,-25.3 599.492,-27.2937 602.1028,-25.1733 599.606,-25.0466 599.606,-25.0466 599.606,-25.0466 602.1028,-25.1733 599.7201,-22.7995 604.5996,-25.3 604.5996,-25.3"
         id="polygon235" />
    </g>
    <!-- v23_t0_e4_s1 -->
    <g
       id="node13"
       class="node">
      <title
         id="title238">v23_t0_e4_s1</title>
      <ellipse
         fill="#000000"
         stroke="#000000"
         cx="93.5"
         cy="-62.3"
         rx="3.5"
         ry="3.5"
         id="ellipse240" />
    </g>
    <!-- v23_t0_e4_s1&#45;&gt;e4 -->
    <g
       id="edge15"
       class="edge">
      <title
         id="title243">v23_t0_e4_s1:e-&gt;e4:w</title>
      <path
         fill="none"
         stroke="#000000"
         d="M97,-62.3C126.6944,-62.3 104.6738,-116.361 128.3078,-122.6963"
         id="path245" />
      <polygon
         fill="#000000"
         stroke="#000000"
         points="133.2749,-123.3 128.0399,-124.9302 130.7932,-122.9983 128.3114,-122.6966 128.3114,-122.6966 128.3114,-122.6966 130.7932,-122.9983 128.583,-120.463 133.2749,-123.3 133.2749,-123.3"
         id="polygon247" />
    </g>
    <!-- v23_t0_e4_s1&#45;&gt;e23 -->
    <g
       id="edge7"
       class="edge">
      <title
         id="title250">v23_t0_e4_s1:s-&gt;e23:n</title>
      <path
         d="M 65.718633,-39.776699 C 91.546852,36.192012 209.26357,-44.775796 257.0498,-50.3 h 226.2749 c 37.4949,0 193.36659,-41.574762 205.17529,-10.863062 0,0 4.69026,11.04895 -4.37076,17.982876 l -9.06103,6.933926 -0.78752,0.05431"
         id="path252"
         inkscape:connector-curvature="0"
         style="fill:none;stroke:#000000"
         sodipodi:nodetypes="ccscscc" />
      <polygon
         points="660.3496,-50.3 661.7,-55.614 659.9168,-52.7623 659.484,-55.2245 659.9168,-52.7623 657.268,-54.835 "
         id="polygon254"
         transform="rotate(97.503509,658.95488,-38.902313)"
         style="fill:#000000;stroke:#000000" />
      <path
         style="fill:none;stroke:#000000;stroke-width:1.01262486;stroke-linecap:butt;stroke-linejoin:miter;stroke-miterlimit:4;stroke-dasharray:none;stroke-opacity:1"
         d="m 65.718633,-39.776699 c 0,0 -0.48954,-3.952488 -0.495004,-4.672432 -0.02478,-3.265521 0.42826,-12.716466 6.20352,-17.281423 3.769588,-2.979608 12.932513,-0.367849 18.740328,-0.421378"
         id="path1078"
         inkscape:connector-curvature="0"
         sodipodi:nodetypes="cssc" />
    </g>
    <!-- v23_t1_e34_s1&#45;&gt;e34 -->
    <g
       id="edge16"
       class="edge">
      <title
         id="title257">v23_t1_e34_s1:e-&gt;e34:w</title>
      <path
         fill="none"
         stroke="#000000"
         d="M713.0996,-40.3C727.3115,-40.3 731.9409,-43.4174 743.907,-44.1481"
         id="path259" />
      <polygon
         fill="#000000"
         stroke="#000000"
         points="749.0996,-44.3 744.0359,-46.4027 746.6007,-44.2268 744.1017,-44.1537 744.1017,-44.1537 744.1017,-44.1537 746.6007,-44.2268 744.1676,-41.9046 749.0996,-44.3 749.0996,-44.3"
         id="polygon261" />
    </g>
  </g>
</svg>
