<?xml version="1.0" encoding="UTF-8" standalone="no"?>
<!-- Generated by graphviz version 2.40.1 (20161225.0304)
 -->

<!-- Title: %0 Pages: 1 -->

<svg
   xmlns:dc="http://purl.org/dc/elements/1.1/"
   xmlns:cc="http://creativecommons.org/ns#"
   xmlns:rdf="http://www.w3.org/1999/02/22-rdf-syntax-ns#"
   xmlns:svg="http://www.w3.org/2000/svg"
   xmlns="http://www.w3.org/2000/svg"
   xmlns:sodipodi="http://sodipodi.sourceforge.net/DTD/sodipodi-0.dtd"
   xmlns:inkscape="http://www.inkscape.org/namespaces/inkscape"
   width="326pt"
   height="404pt"
   viewBox="0.00 0.00 326.19 403.60"
   version="1.1"
   id="svg18855"
   sodipodi:docname="example-main-formal.svg"
   inkscape:version="0.92.5 (2060ec1f9f, 2020-04-08)">
  <metadata
     id="metadata18861">
    <rdf:RDF>
      <cc:Work
         rdf:about="">
        <dc:format>image/svg+xml</dc:format>
        <dc:type
           rdf:resource="http://purl.org/dc/dcmitype/StillImage" />
        <dc:title></dc:title>
      </cc:Work>
    </rdf:RDF>
  </metadata>
  <defs
     id="defs18859" />
  <sodipodi:namedview
     pagecolor="#ffffff"
     bordercolor="#666666"
     borderopacity="1"
     objecttolerance="10"
     gridtolerance="10"
     guidetolerance="10"
     inkscape:pageopacity="0"
     inkscape:pageshadow="2"
     inkscape:window-width="1848"
     inkscape:window-height="1137"
     id="namedview18857"
     showgrid="false"
     inkscape:zoom="1.2391871"
     inkscape:cx="468.33811"
     inkscape:cy="280.22715"
     inkscape:window-x="1920"
     inkscape:window-y="27"
     inkscape:window-maximized="1"
     inkscape:current-layer="graph0" />
  <g
     id="graph0"
     class="graph"
     transform="scale(1 1) rotate(0) translate(4 399.6)">
    <title
       id="title18512">%0</title>
    <!-- e5 -->
    <g
       id="node1"
       class="node">
      <title
         id="title18516">e5</title>
      <path
         fill="none"
         stroke="#000000"
         d="M161.2838,-.5C161.2838,-.5 191.2838,-.5 191.2838,-.5 197.2838,-.5 203.2838,-6.5 203.2838,-12.5 203.2838,-12.5 203.2838,-38.1 203.2838,-38.1 203.2838,-44.1 197.2838,-50.1 191.2838,-50.1 191.2838,-50.1 161.2838,-50.1 161.2838,-50.1 155.2838,-50.1 149.2838,-44.1 149.2838,-38.1 149.2838,-38.1 149.2838,-12.5 149.2838,-12.5 149.2838,-6.5 155.2838,-.5 161.2838,-.5"
         id="path18518" />
      <text
         text-anchor="middle"
         x="161.5338"
         y="-33.5"
         font-family="Times,serif"
         font-size="14.00"
         fill="#000000"
         id="text18520" />
      <polyline
         fill="none"
         stroke="#000000"
         points="149.2838,-25.3 173.7838,-25.3 "
         id="polyline18522" />
      <text
         text-anchor="middle"
         x="161.5338"
         y="-8.7"
         font-family="Times,serif"
         font-size="14.00"
         fill="#000000"
         id="text18524" />
      <polyline
         fill="none"
         stroke="#000000"
         points="173.7838,-.5 173.7838,-50.1 "
         id="polyline18526" />
      <text
         x="188.36411"
         y="-21.1"
         font-size="14.00"
         id="text18528"
         style="font-size:14px;font-family:Times, serif;text-anchor:middle;fill:#000000">$\omega$</text>
    </g>
    <!-- e3 -->
    <g
       id="node2"
       class="node">
      <title
         id="title18531">e3</title>
      <path
         fill="none"
         stroke="#000000"
         d="M155.5338,-69.5C155.5338,-69.5 197.0338,-69.5 197.0338,-69.5 203.0338,-69.5 209.0338,-75.5 209.0338,-81.5 209.0338,-81.5 209.0338,-107.1 209.0338,-107.1 209.0338,-113.1 203.0338,-119.1 197.0338,-119.1 197.0338,-119.1 155.5338,-119.1 155.5338,-119.1 149.5338,-119.1 143.5338,-113.1 143.5338,-107.1 143.5338,-107.1 143.5338,-81.5 143.5338,-81.5 143.5338,-75.5 149.5338,-69.5 155.5338,-69.5"
         id="path18533" />
      <text
         text-anchor="middle"
         x="153.2838"
         y="-90.5"
         font-family="Times,serif"
         font-size="14.00"
         fill="#000000"
         id="text18535" />
      <polyline
         fill="none"
         stroke="#000000"
         points="163.0338,-69.5 163.0338,-119.1 "
         id="polyline18537" />
      <text
         x="176.2838"
         y="-98.5"
         font-size="14.00"
         id="text18539"
         style="font-size:14px;font-family:Times, serif;text-anchor:middle;fill:#000000">$e_3$</text>
      <text
         x="176.2838"
         y="-81.699997"
         font-size="14.00"
         id="text18541"
         style="font-size:14px;font-family:Times, serif;text-anchor:middle;fill:#000000">$\fork$</text>
      <polyline
         fill="none"
         stroke="#000000"
         points="189.5338,-69.5 189.5338,-119.1 "
         id="polyline18543" />
      <text
         text-anchor="middle"
         x="199.2838"
         y="-102.5"
         font-family="Times,serif"
         font-size="14.00"
         fill="#000000"
         id="text18545" />
      <polyline
         fill="none"
         stroke="#000000"
         points="189.5338,-94.3 209.0338,-94.3 "
         id="polyline18547" />
      <text
         text-anchor="middle"
         x="199.2838"
         y="-77.7"
         font-family="Times,serif"
         font-size="14.00"
         fill="#000000"
         id="text18549" />
    </g>
    <!-- v6_I -->
    <g
       id="node7"
       class="node">
      <title
         id="title18552">v6_I</title>
      <ellipse
         fill="#000000"
         stroke="#000000"
         cx="276.0587"
         cy="-106.3"
         rx="3.5"
         ry="3.5"
         id="ellipse18554" />
    </g>
    <!-- e3&#45;&gt;v6_I -->
    <g
       id="edge1"
       class="edge">
      <title
         id="title18557">e3:e-&gt;v6_I</title>
      <path
         fill="none"
         stroke="#000000"
         d="M214.4345,-106.3C237.3828,-106.3 263.1134,-106.3 272.4395,-106.3"
         id="path18559" />
      <polygon
         fill="#000000"
         stroke="#000000"
         points="209.2838,-106.3 214.2838,-104.0501 211.7838,-106.3 214.2838,-106.3001 214.2838,-106.3001 214.2838,-106.3001 211.7838,-106.3 214.2837,-108.5501 209.2838,-106.3 209.2838,-106.3"
         id="polygon18561" />
      <text
         x="309.94394"
         y="-102.1"
         font-size="14.00"
         id="text18563"
         style="font-size:14px;font-family:Times, serif;text-anchor:middle;fill:#000000">$v_6$ → $v_1$</text>
    </g>
    <!-- v7_I -->
    <g
       id="node8"
       class="node">
      <title
         id="title18566">v7_I</title>
      <ellipse
         fill="#000000"
         stroke="#000000"
         cx="276.0587"
         cy="-81.3"
         rx="3.5"
         ry="3.5"
         id="ellipse18568" />
    </g>
    <!-- e3&#45;&gt;v7_I -->
    <g
       id="edge2"
       class="edge">
      <title
         id="title18571">e3:e-&gt;v7_I</title>
      <path
         fill="none"
         stroke="#000000"
         d="M214.435,-82.2906C237.3853,-82.2092 263.1144,-81.6224 272.4398,-81.3923"
         id="path18573" />
      <polygon
         fill="#000000"
         stroke="#000000"
         points="209.2838,-82.3 214.2796,-80.0408 211.7838,-82.2954 214.2838,-82.2908 214.2838,-82.2908 214.2838,-82.2908 211.7838,-82.2954 214.2879,-84.5408 209.2838,-82.3 209.2838,-82.3"
         id="polygon18575" />
      <text
         x="309.93552"
         y="-76.468903"
         font-size="14.00"
         id="text18577"
         style="font-size:14px;font-family:Times, serif;text-anchor:middle;fill:#000000">$v_7$ → $v_7$</text>
    </g>
    <!-- e2 -->
    <g
       id="node3"
       class="node">
      <title
         id="title18580">e2</title>
      <path
         fill="none"
         stroke="#000000"
         d="M146.0089,-138.5C146.0089,-138.5 206.5587,-138.5 206.5587,-138.5 212.5587,-138.5 218.5587,-144.5 218.5587,-150.5 218.5587,-150.5 218.5587,-176.1 218.5587,-176.1 218.5587,-182.1 212.5587,-188.1 206.5587,-188.1 206.5587,-188.1 146.0089,-188.1 146.0089,-188.1 140.0089,-188.1 134.0089,-182.1 134.0089,-176.1 134.0089,-176.1 134.0089,-150.5 134.0089,-150.5 134.0089,-144.5 140.0089,-138.5 146.0089,-138.5"
         id="path18582" />
      <text
         text-anchor="middle"
         x="143.7589"
         y="-171.5"
         font-family="Times,serif"
         font-size="14.00"
         fill="#000000"
         id="text18584" />
      <polyline
         fill="none"
         stroke="#000000"
         points="134.0089,-163.3 153.5089,-163.3 "
         id="polyline18586" />
      <text
         text-anchor="middle"
         x="143.7589"
         y="-146.7"
         font-family="Times,serif"
         font-size="14.00"
         fill="#000000"
         id="text18588" />
      <polyline
         fill="none"
         stroke="#000000"
         points="153.5089,-138.5 153.5089,-188.1 "
         id="polyline18590" />
      <text
         x="176.2838"
         y="-167.5"
         font-size="14.00"
         id="text18592"
         style="font-size:14px;font-family:Times, serif;text-anchor:middle;fill:#000000">$e_2$</text>
      <text
         x="176.2838"
         y="-150.7"
         font-size="14.00"
         id="text18594"
         style="font-size:14px;font-family:Times, serif;text-anchor:middle;fill:#000000">$\nor$</text>
      <polyline
         fill="none"
         stroke="#000000"
         points="199.0587,-138.5 199.0587,-188.1 "
         id="polyline18596" />
      <text
         text-anchor="middle"
         x="208.8087"
         y="-159.5"
         font-family="Times,serif"
         font-size="14.00"
         fill="#000000"
         id="text18598" />
    </g>
    <!-- v5_I -->
    <g
       id="node9"
       class="node">
      <title
         id="title18601">v5_I</title>
      <ellipse
         fill="#000000"
         stroke="#000000"
         cx="276.0587"
         cy="-163.3"
         rx="3.5"
         ry="3.5"
         id="ellipse18603" />
    </g>
    <!-- e2&#45;&gt;v5_I -->
    <g
       id="edge3"
       class="edge">
      <title
         id="title18606">e2:e-&gt;v5_I</title>
      <path
         fill="none"
         stroke="#000000"
         d="M223.6371,-163.3C242.8494,-163.3 264.0682,-163.3 272.4085,-163.3"
         id="path18608" />
      <polygon
         fill="#000000"
         stroke="#000000"
         points="218.2838,-163.3 223.2838,-161.0501 220.7838,-163.3 223.2838,-163.3001 223.2838,-163.3001 223.2838,-163.3001 220.7838,-163.3 223.2837,-165.5501 218.2838,-163.3 218.2838,-163.3"
         id="polygon18610" />
      <text
         x="309.91293"
         y="-159.10001"
         font-size="14.00"
         id="text18612"
         style="font-size:14px;font-family:Times, serif;text-anchor:middle;fill:#000000">$v_5$ → $v_5$</text>
    </g>
    <!-- e1 -->
    <g
       id="node4"
       class="node">
      <title
         id="title18615">e1</title>
      <path
         fill="none"
         stroke="#000000"
         d="M155.5338,-207.5C155.5338,-207.5 197.0338,-207.5 197.0338,-207.5 203.0338,-207.5 209.0338,-213.5 209.0338,-219.5 209.0338,-219.5 209.0338,-245.1 209.0338,-245.1 209.0338,-251.1 203.0338,-257.1 197.0338,-257.1 197.0338,-257.1 155.5338,-257.1 155.5338,-257.1 149.5338,-257.1 143.5338,-251.1 143.5338,-245.1 143.5338,-245.1 143.5338,-219.5 143.5338,-219.5 143.5338,-213.5 149.5338,-207.5 155.5338,-207.5"
         id="path18617" />
      <text
         text-anchor="middle"
         x="153.2838"
         y="-228.5"
         font-family="Times,serif"
         font-size="14.00"
         fill="#000000"
         id="text18619" />
      <polyline
         fill="none"
         stroke="#000000"
         points="163.0338,-207.5 163.0338,-257.1 "
         id="polyline18621" />
      <text
         x="176.2838"
         y="-236.5"
         font-size="14.00"
         id="text18623"
         style="font-size:14px;font-family:Times, serif;text-anchor:middle;fill:#000000">$e_1$</text>
      <text
         x="176.2838"
         y="-219.7"
         font-size="14.00"
         id="text18625"
         style="font-size:14px;font-family:Times, serif;text-anchor:middle;fill:#000000">$\fork$</text>
      <polyline
         fill="none"
         stroke="#000000"
         points="189.5338,-207.5 189.5338,-257.1 "
         id="polyline18627" />
      <text
         text-anchor="middle"
         x="199.2838"
         y="-240.5"
         font-family="Times,serif"
         font-size="14.00"
         fill="#000000"
         id="text18629" />
      <polyline
         fill="none"
         stroke="#000000"
         points="189.5338,-232.3 209.0338,-232.3 "
         id="polyline18631" />
      <text
         text-anchor="middle"
         x="199.2838"
         y="-215.7"
         font-family="Times,serif"
         font-size="14.00"
         fill="#000000"
         id="text18633" />
    </g>
    <!-- v3_I -->
    <g
       id="node10"
       class="node">
      <title
         id="title18636">v3_I</title>
      <ellipse
         fill="#000000"
         stroke="#000000"
         cx="276.0587"
         cy="-244.3"
         rx="3.5"
         ry="3.5"
         id="ellipse18638" />
    </g>
    <!-- e1&#45;&gt;v3_I -->
    <g
       id="edge4"
       class="edge">
      <title
         id="title18641">e1:e-&gt;v3_I</title>
      <path
         fill="none"
         stroke="#000000"
         d="M214.4345,-244.3C237.3828,-244.3 263.1134,-244.3 272.4395,-244.3"
         id="path18643" />
      <polygon
         fill="#000000"
         stroke="#000000"
         points="209.2838,-244.3 214.2838,-242.0501 211.7838,-244.3 214.2838,-244.3001 214.2838,-244.3001 214.2838,-244.3001 211.7838,-244.3 214.2837,-246.5501 209.2838,-244.3 209.2838,-244.3"
         id="polygon18645" />
      <text
         x="309.94394"
         y="-240.10001"
         font-size="14.00"
         id="text18647"
         style="font-size:14px;font-family:Times, serif;text-anchor:middle;fill:#000000">$v_3$ → $v_6$</text>
    </g>
    <!-- v4_I -->
    <g
       id="node11"
       class="node">
      <title
         id="title18650">v4_I</title>
      <ellipse
         fill="#000000"
         stroke="#000000"
         cx="276.0587"
         cy="-219.3"
         rx="3.5"
         ry="3.5"
         id="ellipse18652" />
    </g>
    <!-- e1&#45;&gt;v4_I -->
    <g
       id="edge5"
       class="edge">
      <title
         id="title18655">e1:e-&gt;v4_I</title>
      <path
         fill="none"
         stroke="#000000"
         d="M214.435,-220.2906C237.3853,-220.2092 263.1144,-219.6224 272.4398,-219.3923"
         id="path18657" />
      <polygon
         fill="#000000"
         stroke="#000000"
         points="209.2838,-220.3 214.2796,-218.0408 211.7838,-220.2954 214.2838,-220.2908 214.2838,-220.2908 214.2838,-220.2908 211.7838,-220.2954 214.2879,-222.5408 209.2838,-220.3 209.2838,-220.3"
         id="polygon18659" />
      <text
         x="309.93552"
         y="-214.4689"
         font-size="14.00"
         id="text18661"
         style="font-size:14px;font-family:Times, serif;text-anchor:middle;fill:#000000">$v_4$ → $v_3$</text>
    </g>
    <!-- e0 -->
    <g
       id="node5"
       class="node">
      <title
         id="title18664">e0</title>
      <path
         fill="none"
         stroke="#000000"
         d="M146.0089,-276.5C146.0089,-276.5 206.5587,-276.5 206.5587,-276.5 212.5587,-276.5 218.5587,-282.5 218.5587,-288.5 218.5587,-288.5 218.5587,-314.1 218.5587,-314.1 218.5587,-320.1 212.5587,-326.1 206.5587,-326.1 206.5587,-326.1 146.0089,-326.1 146.0089,-326.1 140.0089,-326.1 134.0089,-320.1 134.0089,-314.1 134.0089,-314.1 134.0089,-288.5 134.0089,-288.5 134.0089,-282.5 140.0089,-276.5 146.0089,-276.5"
         id="path18666" />
      <text
         text-anchor="middle"
         x="143.7589"
         y="-309.5"
         font-family="Times,serif"
         font-size="14.00"
         fill="#000000"
         id="text18668" />
      <polyline
         fill="none"
         stroke="#000000"
         points="134.0089,-301.3 153.5089,-301.3 "
         id="polyline18670" />
      <text
         text-anchor="middle"
         x="143.7589"
         y="-284.7"
         font-family="Times,serif"
         font-size="14.00"
         fill="#000000"
         id="text18672" />
      <polyline
         fill="none"
         stroke="#000000"
         points="153.5089,-276.5 153.5089,-326.1 "
         id="polyline18674" />
      <text
         x="176.2838"
         y="-305.5"
         font-size="14.00"
         id="text18676"
         style="font-size:14px;font-family:Times, serif;text-anchor:middle;fill:#000000">$e_0$</text>
      <text
         x="176.2838"
         y="-288.70001"
         font-size="14.00"
         id="text18678"
         style="font-size:14px;font-family:Times, serif;text-anchor:middle;fill:#000000">$\nor$</text>
      <polyline
         fill="none"
         stroke="#000000"
         points="199.0587,-276.5 199.0587,-326.1 "
         id="polyline18680" />
      <text
         text-anchor="middle"
         x="208.8087"
         y="-297.5"
         font-family="Times,serif"
         font-size="14.00"
         fill="#000000"
         id="text18682" />
    </g>
    <!-- v2_I -->
    <g
       id="node12"
       class="node">
      <title
         id="title18685">v2_I</title>
      <ellipse
         fill="#000000"
         stroke="#000000"
         cx="276.0587"
         cy="-301.3"
         rx="3.5"
         ry="3.5"
         id="ellipse18687" />
    </g>
    <!-- e0&#45;&gt;v2_I -->
    <g
       id="edge6"
       class="edge">
      <title
         id="title18690">e0:e-&gt;v2_I</title>
      <path
         fill="none"
         stroke="#000000"
         d="M223.6371,-301.3C242.8494,-301.3 264.0682,-301.3 272.4085,-301.3"
         id="path18692" />
      <polygon
         fill="#000000"
         stroke="#000000"
         points="218.2838,-301.3 223.2838,-299.0501 220.7838,-301.3 223.2838,-301.3001 223.2838,-301.3001 223.2838,-301.3001 220.7838,-301.3 223.2837,-303.5501 218.2838,-301.3 218.2838,-301.3"
         id="polygon18694" />
      <text
         x="309.91293"
         y="-297.10001"
         font-size="14.00"
         id="text18696"
         style="font-size:14px;font-family:Times, serif;text-anchor:middle;fill:#000000">$v_2$ → $v_2$</text>
    </g>
    <!-- e4 -->
    <g
       id="node6"
       class="node">
      <title
         id="title18699">e4</title>
      <path
         fill="none"
         stroke="#000000"
         d="M161.2838,-345.5C161.2838,-345.5 191.2838,-345.5 191.2838,-345.5 197.2838,-345.5 203.2838,-351.5 203.2838,-357.5 203.2838,-357.5 203.2838,-383.1 203.2838,-383.1 203.2838,-389.1 197.2838,-395.1 191.2838,-395.1 191.2838,-395.1 161.2838,-395.1 161.2838,-395.1 155.2838,-395.1 149.2838,-389.1 149.2838,-383.1 149.2838,-383.1 149.2838,-357.5 149.2838,-357.5 149.2838,-351.5 155.2838,-345.5 161.2838,-345.5"
         id="path18701" />
      <text
         x="164.61411"
         y="-366.10001"
         font-size="14.00"
         id="text18703"
         inkscape:transform-center-x="1.0705388"
         style="font-size:14px;font-family:Times, serif;text-anchor:middle;fill:#000000">$\alpha$</text>
      <polyline
         fill="none"
         stroke="#000000"
         points="179.9444,-345.5 179.9444,-395.1 "
         id="polyline18705" />
      <text
         text-anchor="middle"
         x="191.1944"
         y="-378.5"
         font-family="Times,serif"
         font-size="14.00"
         fill="#000000"
         id="text18707" />
      <polyline
         fill="none"
         stroke="#000000"
         points="179.9444,-370.3 202.4444,-370.3 "
         id="polyline18709" />
      <text
         text-anchor="middle"
         x="191.1944"
         y="-353.7"
         font-family="Times,serif"
         font-size="14.00"
         fill="#000000"
         id="text18711" />
    </g>
    <!-- v0_I -->
    <g
       id="node13"
       class="node">
      <title
         id="title18714">v0_I</title>
      <ellipse
         fill="#000000"
         stroke="#000000"
         cx="276.0587"
         cy="-382.3"
         rx="3.5"
         ry="3.5"
         id="ellipse18716" />
    </g>
    <!-- e4&#45;&gt;v0_I -->
    <g
       id="edge7"
       class="edge">
      <title
         id="title18719">e4:e-&gt;v0_I</title>
      <path
         d="M207.385,-382.3C233.148,-382.3 262.2677,-382.3 272.374,-382.3"
         id="path18721"
         stroke="#000000"
         fill="none" />
      <polygon
         points="202.2838,-382.3 207.2838,-380.0501 204.7838,-382.3 207.2838,-382.3001 207.2838,-382.3001 207.2838,-382.3001 204.7838,-382.3 207.2837,-384.5501 202.2838,-382.3 202.2838,-382.3"
         id="polygon18723"
         stroke="#000000"
         fill="#000000" />
      <text
         x="309.87842"
         y="-378.10001"
         font-size="14.00"
         id="text18725"
         style="font-size:14px;font-family:Times, serif;text-anchor:middle;fill:#000000">$v_0$ → $v_0$</text>
    </g>
    <!-- v1_I -->
    <g
       id="node14"
       class="node">
      <title
         id="title18728">v1_I</title>
      <ellipse
         fill="#000000"
         stroke="#000000"
         cx="276.0587"
         cy="-357.3"
         rx="3.5"
         ry="3.5"
         id="ellipse18730" />
    </g>
    <!-- e4&#45;&gt;v1_I -->
    <g
       id="edge8"
       class="edge">
      <title
         id="title18733">e4:e-&gt;v1_I</title>
      <path
         fill="none"
         stroke="#000000"
         d="M207.3854,-358.2924C233.1503,-358.2176 262.2686,-357.612 272.3743,-357.3853"
         id="path18735" />
      <polygon
         fill="#000000"
         stroke="#000000"
         points="202.2838,-358.3 207.2804,-356.0424 204.7838,-358.2962 207.2838,-358.2924 207.2838,-358.2924 207.2838,-358.2924 204.7838,-358.2962 207.2872,-360.5424 202.2838,-358.3 202.2838,-358.3"
         id="polygon18737" />
      <text
         x="309.87143"
         y="-352.5278"
         font-size="14.00"
         id="text18739"
         style="font-size:14px;font-family:Times, serif;text-anchor:middle;fill:#000000">$v_1$ → $v_4$</text>
    </g>
    <!-- v6_O -->
    <g
       id="node15"
       class="node">
      <title
         id="title18742">v6_O</title>
      <ellipse
         fill="#000000"
         stroke="#000000"
         cx="40.0044"
         cy="-38.3"
         rx="3.5"
         ry="3.5"
         id="ellipse18744" />
    </g>
    <!-- v6_O&#45;&gt;e5 -->
    <g
       id="edge9"
       class="edge">
      <title
         id="title18747">v6_O:e-&gt;e5:w</title>
      <path
         fill="none"
         stroke="#000000"
         d="M44.0044,-38.3C89.0609,-38.3 101.5746,-37.3728 144.2158,-37.304"
         id="path18749" />
      <polygon
         fill="#000000"
         stroke="#000000"
         points="149.2838,-37.3 144.2856,-39.5541 146.7838,-37.302 144.2838,-37.3041 144.2838,-37.3041 144.2838,-37.3041 146.7838,-37.302 144.282,-35.0541 149.2838,-37.3 149.2838,-37.3"
         id="polygon18751" />
      <text
         x="24.004499"
         y="-34.1413"
         font-size="14.00"
         id="text18753"
         style="font-size:14px;font-family:Times, serif;text-anchor:middle;fill:#000000">$v_6$</text>
    </g>
    <!-- v7_O -->
    <g
       id="node16"
       class="node">
      <title
         id="title18756">v7_O</title>
      <ellipse
         fill="#000000"
         stroke="#000000"
         cx="40.0044"
         cy="-13.3"
         rx="3.5"
         ry="3.5"
         id="ellipse18758" />
    </g>
    <!-- v7_O&#45;&gt;e5 -->
    <g
       id="edge10"
       class="edge">
      <title
         id="title18761">v7_O:e-&gt;e5:w</title>
      <path
         fill="none"
         stroke="#000000"
         d="M44.0044,-13.3C89.0589,-13.3 101.5765,-13.3 144.216,-13.3"
         id="path18763" />
      <polygon
         fill="#000000"
         stroke="#000000"
         points="149.2838,-13.3 144.2838,-15.5501 146.7838,-13.3 144.2838,-13.3001 144.2838,-13.3001 144.2838,-13.3001 146.7838,-13.3 144.2837,-11.0501 149.2838,-13.3 149.2838,-13.3"
         id="polygon18765" />
      <text
         x="24.0044"
         y="-9.1000004"
         font-size="14.00"
         id="text18767"
         style="font-size:14px;font-family:Times, serif;text-anchor:middle;fill:#000000">$v_7$</text>
    </g>
    <!-- v5_O -->
    <g
       id="node17"
       class="node">
      <title
         id="title18770">v5_O</title>
      <ellipse
         fill="#000000"
         stroke="#000000"
         cx="40.0044"
         cy="-94.3"
         rx="3.5"
         ry="3.5"
         id="ellipse18772" />
    </g>
    <!-- v5_O&#45;&gt;e3 -->
    <g
       id="edge11"
       class="edge">
      <title
         id="title18775">v5_O:e-&gt;e3:w</title>
      <path
         fill="none"
         stroke="#000000"
         d="M44.0044,-94.3C86.405,-94.3 98.2473,-94.3 138.2605,-94.3"
         id="path18777" />
      <polygon
         fill="#000000"
         stroke="#000000"
         points="143.2838,-94.3 138.2838,-96.5501 140.7838,-94.3 138.2838,-94.3001 138.2838,-94.3001 138.2838,-94.3001 140.7838,-94.3 138.2837,-92.0501 143.2838,-94.3 143.2838,-94.3"
         id="polygon18779" />
      <text
         x="24.0044"
         y="-90.099998"
         font-size="14.00"
         id="text18781"
         style="font-size:14px;font-family:Times, serif;text-anchor:middle;fill:#000000">$v_5$</text>
    </g>
    <!-- v3_O -->
    <g
       id="node18"
       class="node">
      <title
         id="title18784">v3_O</title>
      <ellipse
         fill="#000000"
         stroke="#000000"
         cx="40.0044"
         cy="-175.3"
         rx="3.5"
         ry="3.5"
         id="ellipse18786" />
    </g>
    <!-- v3_O&#45;&gt;e2 -->
    <g
       id="edge12"
       class="edge">
      <title
         id="title18789">v3_O:e-&gt;e2:w</title>
      <path
         fill="none"
         stroke="#000000"
         d="M44.0044,-175.3C82.4045,-175.3 93.242,-175.3 129.2734,-175.3"
         id="path18791" />
      <polygon
         fill="#000000"
         stroke="#000000"
         points="134.2838,-175.3 129.2838,-177.5501 131.7838,-175.3 129.2838,-175.3001 129.2838,-175.3001 129.2838,-175.3001 131.7838,-175.3 129.2837,-173.0501 134.2838,-175.3 134.2838,-175.3"
         id="polygon18793" />
      <text
         x="24.0044"
         y="-171.10001"
         font-size="14.00"
         id="text18795"
         style="font-size:14px;font-family:Times, serif;text-anchor:middle;fill:#000000">$v_3$</text>
    </g>
    <!-- v4_O -->
    <g
       id="node19"
       class="node">
      <title
         id="title18798">v4_O</title>
      <ellipse
         fill="#000000"
         stroke="#000000"
         cx="40.0044"
         cy="-150.3"
         rx="3.5"
         ry="3.5"
         id="ellipse18800" />
    </g>
    <!-- v4_O&#45;&gt;e2 -->
    <g
       id="edge13"
       class="edge">
      <title
         id="title18803">v4_O:e-&gt;e2:w</title>
      <path
         fill="none"
         stroke="#000000"
         d="M44.0044,-150.3C82.4069,-150.3 93.24,-151.2159 129.2732,-151.2946"
         id="path18805" />
      <polygon
         fill="#000000"
         stroke="#000000"
         points="134.2838,-151.3 129.2813,-153.5445 131.7838,-151.2973 129.2838,-151.2945 129.2838,-151.2945 129.2838,-151.2945 131.7838,-151.2973 129.2863,-149.0445 134.2838,-151.3 134.2838,-151.3"
         id="polygon18807" />
      <text
         x="24.004499"
         y="-146.05209"
         font-size="14.00"
         id="text18809"
         style="font-size:14px;font-family:Times, serif;text-anchor:middle;fill:#000000">$v_4$</text>
    </g>
    <!-- v2_O -->
    <g
       id="node20"
       class="node">
      <title
         id="title18812">v2_O</title>
      <ellipse
         fill="#000000"
         stroke="#000000"
         cx="40.0044"
         cy="-232.3"
         rx="3.5"
         ry="3.5"
         id="ellipse18814" />
    </g>
    <!-- v2_O&#45;&gt;e1 -->
    <g
       id="edge14"
       class="edge">
      <title
         id="title18817">v2_O:e-&gt;e1:w</title>
      <path
         fill="none"
         stroke="#000000"
         d="M44.0044,-232.3C86.405,-232.3 98.2473,-232.3 138.2605,-232.3"
         id="path18819" />
      <polygon
         fill="#000000"
         stroke="#000000"
         points="143.2838,-232.3 138.2838,-234.5501 140.7838,-232.3 138.2838,-232.3001 138.2838,-232.3001 138.2838,-232.3001 140.7838,-232.3 138.2837,-230.0501 143.2838,-232.3 143.2838,-232.3"
         id="polygon18821" />
      <text
         x="24.0044"
         y="-228.10001"
         font-size="14.00"
         id="text18823"
         style="font-size:14px;font-family:Times, serif;text-anchor:middle;fill:#000000">$v_2$</text>
    </g>
    <!-- v0_O -->
    <g
       id="node21"
       class="node">
      <title
         id="title18826">v0_O</title>
      <ellipse
         fill="#000000"
         stroke="#000000"
         cx="40.0044"
         cy="-313.3"
         rx="3.5"
         ry="3.5"
         id="ellipse18828" />
    </g>
    <!-- v0_O&#45;&gt;e0 -->
    <g
       id="edge15"
       class="edge">
      <title
         id="title18831">v0_O:e-&gt;e0:w</title>
      <path
         fill="none"
         stroke="#000000"
         d="M44.0044,-313.3C82.4045,-313.3 93.242,-313.3 129.2734,-313.3"
         id="path18833" />
      <polygon
         fill="#000000"
         stroke="#000000"
         points="134.2838,-313.3 129.2838,-315.5501 131.7838,-313.3 129.2838,-313.3001 129.2838,-313.3001 129.2838,-313.3001 131.7838,-313.3 129.2837,-311.0501 134.2838,-313.3 134.2838,-313.3"
         id="polygon18835" />
      <text
         x="24.0044"
         y="-309.10001"
         font-size="14.00"
         id="text18837"
         style="font-size:14px;font-family:Times, serif;text-anchor:middle;fill:#000000">$v_0$</text>
    </g>
    <!-- v1_O -->
    <g
       id="node22"
       class="node">
      <title
         id="title18840">v1_O</title>
      <ellipse
         fill="#000000"
         stroke="#000000"
         cx="40.0044"
         cy="-288.3"
         rx="3.5"
         ry="3.5"
         id="ellipse18842" />
    </g>
    <!-- v1_O&#45;&gt;e0 -->
    <g
       id="edge16"
       class="edge">
      <title
         id="title18845">v1_O:e-&gt;e0:w</title>
      <path
         fill="none"
         stroke="#000000"
         d="M44.0044,-288.3C82.4069,-288.3 93.24,-289.2159 129.2732,-289.2946"
         id="path18847" />
      <polygon
         fill="#000000"
         stroke="#000000"
         points="134.2838,-289.3 129.2813,-291.5445 131.7838,-289.2973 129.2838,-289.2945 129.2838,-289.2945 129.2838,-289.2945 131.7838,-289.2973 129.2863,-287.0445 134.2838,-289.3 134.2838,-289.3"
         id="polygon18849" />
      <text
         x="24.004499"
         y="-284.05209"
         font-size="14.00"
         id="text18851"
         style="font-size:14px;font-family:Times, serif;text-anchor:middle;fill:#000000">$v_1$</text>
    </g>
    <!-- support -->
    <!-- support&#45;&gt;e4 -->
    <text
       xml:space="preserve"
       style="font-style:normal;font-weight:normal;font-size:30.01748466px;line-height:1.25;font-family:sans-serif;letter-spacing:0px;word-spacing:0px;fill:#000000;fill-opacity:1;stroke:none;stroke-width:0.75043714"
       x="272.54318"
       y="-409.65823"
       id="text1819-3-7"><tspan
         sodipodi:role="line"
         id="tspan1817-6-5"
         x="272.54318"
         y="-409.65823"
         style="font-size:5.00291443px;stroke-width:0.75043714">$V^{\mathcal{T}}$</tspan></text>
    <rect
       style="fill:#6b6462;fill-opacity:0.19665276;stroke:#000000;stroke-width:1.01309013;stroke-miterlimit:4;stroke-dasharray:none;stroke-opacity:0.0376569"
       id="rect1839-3"
       width="38.269314"
       height="436.43021"
       x="261.23093"
       y="-432.91696"
       ry="11.506176" />
    <text
       xml:space="preserve"
       style="font-style:normal;font-weight:normal;font-size:30.01748466px;line-height:1.25;font-family:sans-serif;letter-spacing:0px;word-spacing:0px;fill:#000000;fill-opacity:1;stroke:none;stroke-width:0.75043714"
       x="24.151447"
       y="-409.65823"
       id="text1819-3-7-5"><tspan
         sodipodi:role="line"
         id="tspan1817-6-5-6"
         x="24.151447"
         y="-409.65823"
         style="font-size:5.00291443px;stroke-width:0.75043714">$V^{\mathcal{S}}$</tspan></text>
    <rect
       style="fill:#6b6462;fill-opacity:0.19665276;stroke:#000000;stroke-width:1.01309013;stroke-miterlimit:4;stroke-dasharray:none;stroke-opacity:0.0376569"
       id="rect1839-3-2"
       width="38.269314"
       height="436.43021"
       x="12.839216"
       y="-432.91696"
       ry="11.506176" />
  </g>
</svg>
