<?xml version="1.0" encoding="UTF-8" standalone="no"?>
<svg
   xmlns:dc="http://purl.org/dc/elements/1.1/"
   xmlns:cc="http://creativecommons.org/ns#"
   xmlns:rdf="http://www.w3.org/1999/02/22-rdf-syntax-ns#"
   xmlns:svg="http://www.w3.org/2000/svg"
   xmlns="http://www.w3.org/2000/svg"
   xmlns:sodipodi="http://sodipodi.sourceforge.net/DTD/sodipodi-0.dtd"
   xmlns:inkscape="http://www.inkscape.org/namespaces/inkscape"
   version="1.1"
   width="336.84613pt"
   height="99.285576pt"
   viewBox="0 0 336.84613 99.285577"
   id="svg115"
   sodipodi:docname="circuit.svg"
   inkscape:version="1.0.2 (1.0.2+r75+1)">
  <metadata
     id="metadata121">
    <rdf:RDF>
      <cc:Work
         rdf:about="">
        <dc:format>image/svg+xml</dc:format>
        <dc:type
           rdf:resource="http://purl.org/dc/dcmitype/StillImage" />
        <dc:title></dc:title>
      </cc:Work>
    </rdf:RDF>
  </metadata>
  <defs
     id="defs119" />
  <sodipodi:namedview
     pagecolor="#ffffff"
     bordercolor="#666666"
     borderopacity="1"
     objecttolerance="10"
     gridtolerance="10"
     guidetolerance="10"
     inkscape:pageopacity="0"
     inkscape:pageshadow="2"
     inkscape:window-width="2560"
     inkscape:window-height="1404"
     id="namedview117"
     showgrid="false"
     inkscape:zoom="4.632914"
     inkscape:cx="224.56409"
     inkscape:cy="66.190384"
     inkscape:window-x="2560"
     inkscape:window-y="0"
     inkscape:window-maximized="1"
     inkscape:current-layer="g78"
     fit-margin-top="10"
     fit-margin-left="5"
     fit-margin-right="5"
     fit-margin-bottom="10" />
  <g
     enable-background="new"
     id="g113"
     transform="translate(0.60599908,6.2675787)">
    <g
       id="g111">
      <g
         id="g21">
        <clipPath
           id="cp0">
          <path
             transform="matrix(1.00003,0,0,-1.00003,4.394001,62.097)"
             d="M 0,0 H 37.781808 V 37.84959 H 0 Z"
             id="path2" />
        </clipPath>
        <g
           clip-path="url(#cp0)"
           id="g19">
          <path
             transform="matrix(1.00003,0,0,1.00003,4.394001,24.246273)"
             d="m 26.281,11.656 c 0,1.93 -1.562,3.496 -3.496,3.496 -1.933,0 -3.5,-1.566 -3.5,-3.496 0,-1.933 1.567,-3.5 3.5,-3.5 1.934,0 3.496,1.567 3.496,3.5 z m 0,0"
             id="path5" />
          <path
             transform="matrix(1.00003,0,0,1.00003,4.394001,24.246273)"
             stroke-width="0.99942"
             stroke-linecap="butt"
             stroke-miterlimit="4"
             stroke-linejoin="miter"
             fill="none"
             stroke="#f2f2f2"
             d="m 26.281,11.656 c 0,1.93 -1.562,3.496 -3.496,3.496 -1.933,0 -3.5,-1.566 -3.5,-3.496 0,-1.933 1.567,-3.5 3.5,-3.5 1.934,0 3.496,1.567 3.496,3.5 z m 0,0"
             id="path7"
             style="fill:#f2f2f2;fill-opacity:1" />
          <path
             transform="matrix(1.00003,0,0,1.00003,4.394001,24.246273)"
             d="m 26.281,26.656 c 0,1.93 -1.562,3.496 -3.496,3.496 -1.933,0 -3.5,-1.566 -3.5,-3.496 0,-1.933 1.567,-3.5 3.5,-3.5 1.934,0 3.496,1.567 3.496,3.5 z m 0,0"
             id="path9"
             style="fill:#f2f2f2;fill-opacity:1" />
          <path
             transform="matrix(1.00003,0,0,1.00003,4.394001,24.246273)"
             stroke-width="0.99942"
             stroke-linecap="butt"
             stroke-miterlimit="4"
             stroke-linejoin="miter"
             fill="none"
             stroke="#f2f2f2"
             d="m 26.281,26.656 c 0,1.93 -1.562,3.496 -3.496,3.496 -1.933,0 -3.5,-1.566 -3.5,-3.496 0,-1.933 1.567,-3.5 3.5,-3.5 1.934,0 3.496,1.567 3.496,3.5 z m 0,0"
             id="path11" />
          <path
             transform="matrix(1.00003,0,0,1.00003,4.394001,24.246273)"
             stroke-width="1.5"
             stroke-linecap="butt"
             stroke-dasharray="1.5, 1.5"
             stroke-miterlimit="4"
             stroke-linejoin="miter"
             fill="none"
             stroke="#bbbbbb"
             d="m 9.09,0.75 h 19.601 c 4.621,0 8.34,4.902 8.34,10.992 v 14.367 c 0,6.086 -3.719,10.989 -8.34,10.989 H 9.09 c -4.621,0 -8.34,-4.903 -8.34,-10.989 V 11.742 C 0.75,5.652 4.469,0.75 9.09,0.75 Z m 0,0"
             id="path13" />
          <path
             transform="matrix(1.00003,0,0,1.00003,4.394001,24.246273)"
             d="m 13.891,15.555 v -0.34 c -0.821,-0.059 -1.364,0.101 -1.364,-0.86 V 7.137 L 12.426,7.039 C 10.902,7.719 11.387,7.5 9.883,8.102 l 0.14,0.281 C 10.324,8.383 10.984,8 11.324,8 c 0.18,0 0.16,0.383 0.16,0.48 v 5.875 c 0,0.981 -0.582,0.801 -1.382,0.86 v 0.34 c 1.261,-0.039 2.527,-0.039 3.789,0 z m 0,0"
             id="path15"
             style="fill:#f2f2f2;fill-opacity:1" />
          <path
             transform="matrix(1.00003,0,0,1.00003,4.394001,24.246273)"
             d="m 14.621,29.766 -0.16,-0.602 c -0.762,0.398 -1.543,0.441 -2.285,0.441 -0.563,0 -1.602,-0.043 -1.602,-0.043 l 1.922,-2.183 c 0.762,-0.902 1.645,-1.824 1.645,-3.086 0,-1.402 -1.004,-2.246 -2.344,-2.246 -0.785,0 -1.426,0.262 -1.965,0.824 l -0.441,1.383 0.3,0.098 0.219,-0.481 c 0.32,-0.621 0.723,-0.941 1.445,-0.941 1.102,0 1.723,0.722 1.723,1.785 0,1.242 -1.043,2.422 -1.824,3.305 l -2.106,2.285 v 0.242 c 0.442,-0.02 3.29,0.019 3.45,-0.02 1.3,-0.523 0.941,-0.382 2.023,-0.761 z m 0,0"
             id="path17"
             style="fill:#f2f2f2;fill-opacity:1" />
        </g>
      </g>
      <g
         id="g80">
        <clipPath
           id="cp1">
          <path
             transform="matrix(1.00003,0,0,-1.00003,74.873,83.018)"
             d="M 0,0 H 185.8881 V 79.2832 H 0 Z"
             id="path23" />
        </clipPath>
        <g
           clip-path="url(#cp1)"
           id="g78">
          <path
             transform="matrix(1.00003,0,0,1.00003,74.873,3.7324143)"
             stroke-width="1.5"
             stroke-linecap="butt"
             stroke-dasharray="1.5, 1.5"
             stroke-miterlimit="4"
             stroke-linejoin="miter"
             fill="none"
             stroke="#bbbbbb"
             d="m 9.09,0.75 h 167.711 c 4.617,0 8.336,4.902 8.336,10.992 v 55.801 c 0,6.09 -3.719,10.992 -8.336,10.992 H 9.09 c -4.621,0 -8.34,-4.902 -8.34,-10.992 V 11.742 C 0.75,5.652 4.469,0.75 9.09,0.75 Z m 0,0"
             id="path26" />
          <path
             transform="matrix(-1.00003,0,0,1.00003,74.873,3.7324143)"
             d="m -65.797,16.871 h 16.922 c 5.363,0 9.68,4.902 9.68,10.992 v 8.364 c 0,6.089 -4.317,10.992 -9.68,10.992 h -16.922 c -5.363,0 -9.68,-4.903 -9.68,-10.992 v -8.364 c 0,-6.09 4.317,-10.992 9.68,-10.992 z m 0,0"
             fill="#none"
             id="path28"
             style="fill:none;fill-opacity:1" />
          <path
             transform="matrix(-1.00003,0,0,1.00003,74.873,3.7324143)"
             stroke-width="1.5"
             stroke-linecap="butt"
             stroke-miterlimit="4"
             stroke-linejoin="miter"
             fill="none"
             stroke="#f2f2f2"
             d="m -65.797,16.871 h 16.922 c 5.363,0 9.68,4.902 9.68,10.992 v 8.364 c 0,6.089 -4.317,10.992 -9.68,10.992 h -16.922 c -5.363,0 -9.68,-4.903 -9.68,-10.992 v -8.364 c 0,-6.09 4.317,-10.992 9.68,-10.992 z m 0,0"
             id="path30" />
          <path
             transform="matrix(1.00003,0,0,1.00003,74.873,3.7324143)"
             d="m 30.266,55.047 c 0,1.933 -1.567,3.5 -3.496,3.5 -1.934,0 -3.5,-1.567 -3.5,-3.5 0,-1.93 1.566,-3.496 3.5,-3.496 1.929,0 3.496,1.566 3.496,3.496 z m 0,0"
             id="path32" />
          <path
             transform="matrix(1.00003,0,0,1.00003,74.873,3.7324143)"
             stroke-width="0.999418"
             stroke-linecap="butt"
             stroke-miterlimit="4"
             stroke-linejoin="miter"
             fill="none"
             stroke="#f2f2f2"
             d="m 30.266,55.047 c 0,1.933 -1.567,3.5 -3.496,3.5 -1.934,0 -3.5,-1.567 -3.5,-3.5 0,-1.93 1.566,-3.496 3.5,-3.496 1.929,0 3.496,1.566 3.496,3.496 z m 0,0"
             id="path34"
             style="fill:#f2f2f2;fill-opacity:1" />
          <path
             transform="matrix(1.00003,0,0,1.00003,74.873,3.7324143)"
             stroke-width="1.5"
             stroke-linecap="butt"
             stroke-miterlimit="4"
             stroke-linejoin="miter"
             fill="none"
             stroke="#f2f2f2"
             d="m 29.902,54.965 c 0.411,0 51.735,-0.059 52.141,-0.059 16.527,0 6.73,-17.316 30.344,-17.316 2.547,0 -1.8168,0.008 1.4722,0.008"
             id="path36"
             sodipodi:nodetypes="cssc" />
          <path
             transform="matrix(1.00003,0,0,1.00003,74.873,3.7324143)"
             stroke-width="1.5"
             stroke-linecap="butt"
             stroke-miterlimit="4"
             stroke-linejoin="miter"
             fill="none"
             stroke="#f2f2f2"
             d="m 24.043,31.898 c -27.746,0 -11.027,-25.652 61.82,-25.839 84.086,-0.219 95.54554,26.711 63.82654,26.39"
             id="path38"
             sodipodi:nodetypes="ccc" />
          <path
             transform="matrix(-1.00003,0,0,1.00003,74.873,3.7324143)"
             d="m -91.805,27.461 c 0,1.934 -1.566,3.5 -3.5,3.5 -1.929,0 -3.496,-1.566 -3.496,-3.5 0,-1.93 1.567,-3.496 3.496,-3.496 1.934,0 3.5,1.566 3.5,3.496 z m 0,0"
             id="path40" />
          <path
             transform="matrix(-1.00003,0,0,1.00003,74.873,3.7324143)"
             stroke-width="0.999418"
             stroke-linecap="butt"
             stroke-miterlimit="4"
             stroke-linejoin="miter"
             fill="none"
             stroke="#f2f2f2"
             d="m -91.805,27.461 c 0,1.934 -1.566,3.5 -3.5,3.5 -1.929,0 -3.496,-1.566 -3.496,-3.5 0,-1.93 1.567,-3.496 3.496,-3.496 1.934,0 3.5,1.566 3.5,3.496 z m 0,0"
             id="path42"
             style="fill:#f2f2f2;fill-opacity:1" />
          <path
             transform="matrix(1.00003,0,0,1.00003,74.873,3.7324143)"
             d="m 123.309,16.871 h 16.921 c 5.364,0 9.68,4.902 9.68,10.992 v 8.364 c 0,6.089 -4.316,10.992 -9.68,10.992 h -16.921 c -5.364,0 -9.68,-4.903 -9.68,-10.992 v -8.364 c 0,-6.09 4.316,-10.992 9.68,-10.992 z m 0,0"
             fill="#none"
             id="path44"
             style="fill:none" />
          <path
             transform="matrix(1.00003,0,0,1.00003,74.873,3.7324143)"
             stroke-width="1.5"
             stroke-linecap="butt"
             stroke-miterlimit="4"
             stroke-linejoin="miter"
             fill="none"
             stroke="#f2f2f2"
             d="m 123.309,16.871 h 16.921 c 5.364,0 9.68,4.902 9.68,10.992 v 8.364 c 0,6.089 -4.316,10.992 -9.68,10.992 h -16.921 c -5.364,0 -9.68,-4.903 -9.68,-10.992 v -8.364 c 0,-6.09 4.316,-10.992 9.68,-10.992 z m 0,0"
             id="path46" />
          <path
             transform="matrix(1.00003,0,0,-1.00003,74.873,3.7324143)"
             d="m 30.266,-32.348 c 0,1.934 -1.567,3.496 -3.496,3.496 -1.934,0 -3.5,-1.562 -3.5,-3.496 0,-1.933 1.566,-3.5 3.5,-3.5 1.929,0 3.496,1.567 3.496,3.5 z m 0,0"
             id="path48" />
          <path
             transform="matrix(1.00003,0,0,-1.00003,74.873,3.7324143)"
             stroke-width="1.5"
             stroke-linecap="butt"
             stroke-miterlimit="4"
             stroke-linejoin="miter"
             fill="none"
             stroke="#f2f2f2"
             d="m 30.266,-32.348 c 0,1.934 -1.567,3.496 -3.496,3.496 -1.934,0 -3.5,-1.562 -3.5,-3.496 0,-1.933 1.566,-3.5 3.5,-3.5 1.929,0 3.496,1.567 3.496,3.5 z m 0,0"
             id="path50"
             style="fill:#f2f2f2;fill-opacity:1" />
          <path
             transform="matrix(1.00003,0,0,1.00003,74.873,3.7324143)"
             stroke-width="1.5"
             stroke-linecap="butt"
             stroke-miterlimit="4"
             stroke-linejoin="miter"
             fill="none"
             stroke="#f2f2f2"
             d="m 29.875,32.164 h 8.766"
             id="path52" />
          <path
             transform="matrix(1.00003,0,0,1.00003,74.873,3.7324143)"
             stroke-width="1.5"
             stroke-linecap="butt"
             stroke-miterlimit="4"
             stroke-linejoin="miter"
             fill="none"
             stroke="#f2f2f2"
             d="M 113.496,27.598 H 75.93"
             id="path54" />
          <path
             transform="matrix(1.00003,0,0,1.00003,74.873,3.7324143)"
             stroke-width="1.5"
             stroke-linecap="butt"
             stroke-miterlimit="4"
             stroke-linejoin="miter"
             fill="none"
             stroke="#f2f2f2"
             d="m 165.469,54.965 c -0.41,0 -56.821,-0.059 -57.223,-0.059 -16.527,0 -6.73,-17.316 -30.348,-17.316 -2.543,0 0.293,0.008 -2.996,0.008"
             id="path56" />
          <path
             transform="matrix(1.00003,0,0,1.00003,74.873,3.7324143)"
             d="m 166.766,55.047 c 0,1.933 -1.567,3.5 -3.496,3.5 -1.934,0 -3.5,-1.567 -3.5,-3.5 0,-1.93 1.566,-3.496 3.5,-3.496 1.929,0 3.496,1.566 3.496,3.496 z m 0,0"
             id="path58"
             style="fill:#f2f2f2;fill-opacity:1" />
          <path
             transform="matrix(1.00003,0,0,1.00003,74.873,3.7324143)"
             stroke-width="0.999418"
             stroke-linecap="butt"
             stroke-miterlimit="4"
             stroke-linejoin="miter"
             fill="none"
             stroke="#f2f2f2"
             d="m 166.766,55.047 c 0,1.933 -1.567,3.5 -3.496,3.5 -1.934,0 -3.5,-1.567 -3.5,-3.5 0,-1.93 1.566,-3.496 3.5,-3.496 1.929,0 3.496,1.566 3.496,3.496 z m 0,0"
             id="path60" />
          <path
             transform="matrix(1.00003,0,0,1.00003,74.873,3.7324143)"
             d="m 99.266,69.98 c 0,1.93 -1.567,3.497 -3.496,3.497 -1.934,0 -3.5,-1.567 -3.5,-3.497 0,-1.933 1.566,-3.5 3.5,-3.5 1.929,0 3.496,1.567 3.496,3.5 z m 0,0"
             id="path62"
             style="fill:#f2f2f2;fill-opacity:1" />
          <path
             transform="matrix(1.00003,0,0,1.00003,74.873,3.7324143)"
             stroke-width="0.999418"
             stroke-linecap="butt"
             stroke-miterlimit="4"
             stroke-linejoin="miter"
             fill="none"
             stroke="#f2f2f2"
             d="m 99.266,69.98 c 0,1.93 -1.567,3.497 -3.496,3.497 -1.934,0 -3.5,-1.567 -3.5,-3.497 0,-1.933 1.566,-3.5 3.5,-3.5 1.929,0 3.496,1.567 3.496,3.5 z m 0,0"
             id="path64" />
          <path
             transform="matrix(1.00003,0,0,1.00003,74.873,3.7324143)"
             d="m 63.789,20.652 c -0.234,-0.468 -1.137,-0.707 -1.605,-0.707 -2.231,0 -3.094,1.254 -4.071,2.352 -1.097,1.25 -1.449,3.445 -1.722,5.008 h -1.723 l -0.43,1.058 h 1.957 c -0.511,3.367 -1.136,6.696 -1.8,10.024 -0.157,0.898 -0.786,3.992 -1.762,4.461 -0.824,0.351 -1.176,-0.078 -1.801,-0.469 l -0.863,1.605 0.98,0.469 c 1.094,0 2.348,-1.058 3.012,-1.84 1.957,-2.308 2.898,-7.867 3.445,-10.726 0.235,-1.176 0.434,-2.348 0.629,-3.524 h 2.582 l 0.313,-1.058 h -2.7 c 0.235,-1.407 0.704,-5.989 2.622,-5.989 0.707,0 1.41,0.352 1.878,0.903 l 0.469,-0.078 z m 0,0"
             id="path66"
             style="fill:#f2f2f2;fill-opacity:1" />
          <path
             transform="matrix(1.00003,0,0,1.00003,74.873,3.7324143)"
             d="m 138.301,23.84 c -3.094,0.668 -3.25,-0.664 -5.246,-0.664 -0.942,0 -2.348,0.234 -3.407,1.097 -1.332,1.055 -1.957,2.739 -1.957,4.305 0,1.996 1.293,2.899 3.094,2.977 -0.433,0.312 -1.605,1.211 -1.605,1.8 0,0.274 0.312,0.665 0.859,1.055 -1.644,0.668 -4.578,1.957 -4.578,4.074 0,1.762 2.035,2.739 4.344,2.739 2.425,0 5.871,-1.411 5.871,-3.68 0,-0.898 -0.625,-1.84 -2.035,-2.82 -0.586,-0.391 -2.621,-1.641 -2.621,-2.387 0,-0.234 0.156,-0.43 0.507,-0.781 2.192,-0.707 3.719,-0.43 4.661,-5.168 0.039,-0.274 -0.079,-0.825 -0.235,-1.098 0.82,-0.039 1.406,-0.273 2.152,-0.508 z m -3.953,2.742 c 0,2.465 -1.41,4.148 -2.821,4.148 -1.215,0 -1.996,-0.937 -1.996,-2.777 0,-1.058 0.313,-2.035 0.821,-2.742 0.511,-0.781 1.214,-1.172 2,-1.172 1.367,0 1.996,0.938 1.996,2.543 z m -0.278,11.742 c 0,1.254 -1.718,2.078 -3.402,2.078 -1.84,0 -3.367,-0.785 -3.367,-2.312 0,-1.84 1.761,-2.778 3.25,-3.246 0.117,0.039 1.367,0.976 1.758,1.211 1.175,0.746 1.761,1.488 1.761,2.269 z m 0,0"
             id="path68"
             style="fill:#f2f2f2;fill-opacity:1" />
          <path
             transform="matrix(1.00003,0,0,1.00003,74.873,3.7324143)"
             d="m 107.758,73.965 v -0.34 c -0.867,-0.055 -1.246,0.07 -1.246,-0.922 v -0.848 c 0,0 0.832,0 1.246,0.036 v -0.813 c -0.453,0.039 -1.246,0.039 -1.246,0.039 l -0.02,-4.097 c 0,-0.684 0,0 0.094,-1.028 l -0.992,0.254 -3.25,5.34 0.125,0.269 h 3.07 v 0.848 c 0,1.067 -0.508,0.867 -1.41,0.922 v 0.34 c 1.211,-0.016 2.418,-0.016 3.629,0 z m -2.219,-2.848 h -2.473 l 2.473,-4.062 z m 0,0"
             id="path70"
             style="fill:#f2f2f2;fill-opacity:1" />
          <path
             d="m 163.92973,77.056291 -0.15107,-0.577032 c -0.72697,0.386202 -1.47325,0.421415 -2.17864,0.421415 -0.53614,0 -1.53004,-0.03521 -1.53004,-0.03521 l 1.83219,-2.085491 c 0.7281,-0.861004 1.57093,-1.739046 1.57093,-2.941952 0,-1.340349 -0.95869,-2.143422 -2.23656,-2.143422 -0.74515,0 -1.35739,0.248759 -1.87195,0.786035 l -0.42141,1.317631 0.28397,0.09769 0.21241,-0.461171 c 0.30669,-0.590662 0.68835,-0.896216 1.37556,-0.896216 1.05184,0 1.64136,0.687213 1.64136,1.69929 0,1.184732 -0.9939,2.311533 -1.73904,3.154363 l -2.00598,2.178634 v 0.230586 c 0.42255,-0.02272 3.13732,0.01817 3.28839,-0.02272 1.24267,-0.496383 0.89622,-0.363484 1.92988,-0.722425 z m 0,0"
             id="path72"
             style="fill:#f2f2f2;fill-opacity:1;stroke-width:1.13589" />
          <path
             transform="matrix(1.00003,0,0,1.00003,74.873,3.7324143)"
             d="m 20.211,59.578 v -0.359 c -0.867,-0.067 -1.438,0.105 -1.438,-0.914 V 50.68 l -0.109,-0.106 c -1.609,0.719 -1.102,0.485 -2.687,1.121 l 0.148,0.297 c 0.316,0 1.016,-0.402 1.375,-0.402 0.191,0 0.168,0.402 0.168,0.508 v 6.207 c 0,1.039 -0.613,0.847 -1.461,0.914 v 0.359 c 1.336,-0.043 2.672,-0.043 4.004,0 z m 0,0"
             id="path74"
             style="fill:#f2f2f2;fill-opacity:1" />
          <path
             transform="matrix(1.00003,0,0,1.00003,74.873,3.7324143)"
             d="m 175.199,56.43 c 0.02,-1.028 -0.914,-1.641 -1.812,-1.813 0.597,-0.39 1.308,-0.875 1.308,-1.679 0,-1.102 -0.972,-1.626 -1.98,-1.626 -0.672,0 -1.231,0.223 -1.699,0.711 l -0.43,1.122 0.281,0.054 c 0.41,-0.597 0.766,-1.176 1.586,-1.176 0.711,0 1.27,0.504 1.27,1.215 0,0.801 -0.672,1.344 -1.379,1.512 l -0.899,0.262 0.207,0.39 0.934,-0.222 c 0.785,-0.188 1.512,0.691 1.566,1.699 0.059,0.766 -0.558,1.98 -1.679,1.98 -0.391,0 -1.325,-0.093 -1.868,-1.14 l -0.281,0.242 c 0.074,1.027 1.047,1.441 1.606,1.441 1.55,0 3.25,-0.933 3.269,-2.972 z m 0,0"
             id="path76"
             style="fill:#f2f2f2;fill-opacity:1" />
        </g>
      </g>
      <g
         id="g101">
        <clipPath
           id="cp2">
          <path
             transform="matrix(1.00003,0,0,-1.00003,293.458,62.097)"
             d="M 0,0 H 37.781808 V 37.84959 H 0 Z"
             id="path82" />
        </clipPath>
        <g
           clip-path="url(#cp2)"
           id="g99">
          <path
             transform="matrix(-1.00003,0,0,1.00003,293.458,24.246273)"
             d="m -11.039,11.641 c 0,1.929 -1.566,3.496 -3.5,3.496 -1.93,0 -3.496,-1.567 -3.496,-3.496 0,-1.934 1.566,-3.5 3.496,-3.5 1.934,0 3.5,1.566 3.5,3.5 z m 0,0"
             id="path85" />
          <path
             transform="matrix(-1.00003,0,0,1.00003,293.458,24.246273)"
             stroke-width="0.99942"
             stroke-linecap="butt"
             stroke-miterlimit="4"
             stroke-linejoin="miter"
             fill="none"
             stroke="#f2f2f2"
             d="m -11.039,11.641 c 0,1.929 -1.566,3.496 -3.5,3.496 -1.93,0 -3.496,-1.567 -3.496,-3.496 0,-1.934 1.566,-3.5 3.496,-3.5 1.934,0 3.5,1.566 3.5,3.5 z m 0,0"
             id="path87"
             style="fill:#f2f2f2;fill-opacity:1" />
          <path
             transform="matrix(-1.00003,0,0,1.00003,293.458,24.246273)"
             d="m -11.039,26.695 c 0,1.934 -1.566,3.5 -3.5,3.5 -1.93,0 -3.496,-1.566 -3.496,-3.5 0,-1.929 1.566,-3.496 3.496,-3.496 1.934,0 3.5,1.567 3.5,3.496 z m 0,0"
             id="path89" />
          <path
             transform="matrix(-1.00003,0,0,1.00003,293.458,24.246273)"
             stroke-width="0.99942"
             stroke-linecap="butt"
             stroke-miterlimit="4"
             stroke-linejoin="miter"
             fill="none"
             stroke="#f2f2f2"
             d="m -11.039,26.695 c 0,1.934 -1.566,3.5 -3.5,3.5 -1.93,0 -3.496,-1.566 -3.496,-3.5 0,-1.929 1.566,-3.496 3.496,-3.496 1.934,0 3.5,1.567 3.5,3.496 z m 0,0"
             id="path91"
             style="fill:#f2f2f2;fill-opacity:1" />
          <path
             transform="matrix(1.00003,0,0,1.00003,293.458,24.246273)"
             stroke-width="1.5"
             stroke-linecap="butt"
             stroke-dasharray="1.5, 1.5"
             stroke-miterlimit="4"
             stroke-linejoin="miter"
             fill="none"
             stroke="#bbbbbb"
             d="m 9.09,0.75 h 19.601 c 4.621,0 8.34,4.902 8.34,10.992 v 14.367 c 0,6.086 -3.719,10.989 -8.34,10.989 H 9.09 c -4.621,0 -8.34,-4.903 -8.34,-10.989 V 11.742 C 0.75,5.652 4.469,0.75 9.09,0.75 Z m 0,0"
             id="path93" />
          <path
             transform="matrix(1.00003,0,0,1.00003,293.458,24.246273)"
             d="m 27.105,12.871 c 0.02,-1.101 -0.98,-1.766 -1.945,-1.945 0.645,-0.422 1.406,-0.942 1.406,-1.805 0,-1.18 -1.043,-1.742 -2.125,-1.742 -0.722,0 -1.324,0.242 -1.824,0.762 l -0.461,1.203 0.301,0.058 c 0.441,-0.64 0.82,-1.261 1.703,-1.261 0.762,0 1.363,0.543 1.363,1.304 0,0.86 -0.722,1.442 -1.484,1.621 l -0.961,0.282 0.219,0.422 1.004,-0.243 c 0.84,-0.199 1.621,0.743 1.683,1.825 0.059,0.82 -0.601,2.125 -1.804,2.125 -0.422,0 -1.422,-0.102 -2.004,-1.223 l -0.301,0.262 c 0.078,1.101 1.121,1.543 1.723,1.543 1.664,0 3.488,-1.004 3.507,-3.188 z m 0,0"
             id="path95"
             style="fill:#f2f2f2;fill-opacity:1" />
          <path
             transform="matrix(1.00003,0,0,1.00003,293.458,24.246273)"
             d="m 27.496,31.148 v -0.382 c -0.961,-0.059 -1.383,0.082 -1.383,-1.02 v -0.941 c 0,0 0.922,0 1.383,0.039 v -0.903 c -0.5,0.039 -1.383,0.039 -1.383,0.039 l -0.019,-4.55 c 0,-0.762 0,0 0.101,-1.141 l -1.105,0.281 -3.606,5.934 0.141,0.301 h 3.406 v 0.941 c 0,1.18 -0.562,0.961 -1.562,1.02 v 0.382 c 1.343,-0.019 2.683,-0.019 4.027,0 z M 25.031,27.98 h -2.746 l 2.746,-4.507 z m 0,0"
             id="path97"
             style="fill:#f2f2f2;fill-opacity:1" />
        </g>
      </g>
      <path
         transform="matrix(1,0,0,-1,167.817,43.377)"
         stroke-width="0.49814"
         stroke-linecap="butt"
         stroke-miterlimit="10"
         stroke-linejoin="miter"
         fill="none"
         stroke="#f2f2f2"
         d="M -121.05014,-2.28203 H -98.0362"
         id="path103" />
      <path
         transform="matrix(1,0,0,-1,70.029888,45.659029)"
         stroke-width="0.49814"
         stroke-linecap="round"
         stroke-linejoin="round"
         fill="none"
         stroke="#f2f2f2"
         d="M -2.5903,2.98882 C -2.11707,1.1955 -1.06248,0.34868 0,0 -1.06248,-0.34868 -2.11707,-1.1955 -2.5903,-2.98882"
         id="path105" />
      <path
         transform="matrix(1,0,0,-1,167.817,43.377)"
         stroke-width="0.49814"
         stroke-linecap="butt"
         stroke-miterlimit="10"
         stroke-linejoin="miter"
         fill="none"
         stroke="#f2f2f2"
         d="M 121.05014,-2.28203 H 98.0362"
         id="path107" />
      <path
         transform="matrix(-1,0,0,1,265.60414,45.659029)"
         stroke-width="0.49814"
         stroke-linecap="round"
         stroke-linejoin="round"
         fill="none"
         stroke="#f2f2f2"
         d="M -2.5903,2.98882 C -2.11707,1.1955 -1.06248,0.34868 0,0 -1.06248,-0.34868 -2.11707,-1.1955 -2.5903,-2.98882"
         id="path109" />
    </g>
  </g>
</svg>
