<?xml version="1.0" encoding="UTF-8" standalone="no"?>
<!DOCTYPE svg PUBLIC "-//W3C//DTD SVG 1.1//EN" "http://www.w3.org/Graphics/SVG/1.1/DTD/svg11.dtd">
<!-- Generated by graphviz version 2.40.1 (20161225.0304)
 -->
<!-- Title: %0 Pages: 1 -->
<svg width="966pt" height="193pt" viewBox="0.00 0.00 966.08 193.30" xmlns="http://www.w3.org/2000/svg" xmlns:xlink="http://www.w3.org/1999/xlink">
<g id="graph0" class="graph" transform="scale(1 1) rotate(0) translate(4 189.3)">
<title>%0</title>
<!-- e0 -->
<g id="node1" class="node">
<title>e0</title>
<path fill="none" stroke="#ffffff" d="M12,-53.8C12,-53.8 42,-53.8 42,-53.8 48,-53.8 54,-59.8 54,-65.8 54,-65.8 54,-116.2 54,-116.2 54,-122.2 48,-128.2 42,-128.2 42,-128.2 12,-128.2 12,-128.2 6,-128.2 0,-122.2 0,-116.2 0,-116.2 0,-65.8 0,-65.8 0,-59.8 6,-53.8 12,-53.8"/>
<text text-anchor="middle" x="15.3303" y="-86.8" font-family="Times,serif" font-size="14.00" fill="#ffffff">α</text>
<polyline fill="none" stroke="#ffffff" points="30.6606,-53.8 30.6606,-128.2 "/>
<text text-anchor="middle" x="41.9106" y="-111.6" font-family="Times,serif" font-size="14.00" fill="#ffffff"> </text>
<polyline fill="none" stroke="#ffffff" points="30.6606,-103.4 53.1606,-103.4 "/>
<text text-anchor="middle" x="41.9106" y="-86.8" font-family="Times,serif" font-size="14.00" fill="#ffffff"> </text>
<polyline fill="none" stroke="#ffffff" points="30.6606,-78.6 53.1606,-78.6 "/>
<text text-anchor="middle" x="41.9106" y="-62" font-family="Times,serif" font-size="14.00" fill="#ffffff"> </text>
</g>
<!-- v0_t0_e1_s0 -->
<g id="node12" class="node">
<title>v0_t0_e1_s0</title>
<ellipse fill="#ffffff" stroke="#ffffff" cx="93.5" cy="-138" rx="3.5" ry="3.5"/>
</g>
<!-- e0&#45;&gt;v0_t0_e1_s0 -->
<g id="edge1" class="edge">
<title>e0:e-&gt;v0_t0_e1_s0:w</title>
<path fill="none" stroke="#ffffff" d="M58.2408,-116.6347C72.0855,-120.2418 72.8113,-138 90,-138"/>
<polygon fill="#ffffff" stroke="#ffffff" points="53,-116 58.2343,-114.3675 55.4819,-116.3006 57.9637,-116.6012 57.9637,-116.6012 57.9637,-116.6012 55.4819,-116.3006 57.6932,-118.8349 53,-116 53,-116"/>
</g>
<!-- v0_t1_e4_s0 -->
<g id="node13" class="node">
<title>v0_t1_e4_s0</title>
<ellipse fill="#ffffff" stroke="#ffffff" cx="93.5" cy="-91" rx="3.5" ry="3.5"/>
</g>
<!-- e0&#45;&gt;v0_t1_e4_s0 -->
<g id="edge2" class="edge">
<title>e0:e-&gt;v0_t1_e4_s0:w</title>
<path fill="none" stroke="#ffffff" d="M58.3128,-91C70.5774,-91 75.4826,-91 90,-91"/>
<polygon fill="#ffffff" stroke="#ffffff" points="53,-91 58,-88.7501 55.5,-91 58,-91.0001 58,-91.0001 58,-91.0001 55.5,-91 58,-93.2501 53,-91 53,-91"/>
</g>
<!-- v0_t2_e39_s0 -->
<g id="node14" class="node">
<title>v0_t2_e39_s0</title>
<ellipse fill="#ffffff" stroke="#ffffff" cx="93.5" cy="-52" rx="3.5" ry="3.5"/>
</g>
<!-- e0&#45;&gt;v0_t2_e39_s0 -->
<g id="edge3" class="edge">
<title>e0:e-&gt;v0_t2_e39_s0:w</title>
<path fill="none" stroke="#ffffff" d="M58.2453,-65.5342C71.1721,-63.105 74.3408,-52 90,-52"/>
<polygon fill="#ffffff" stroke="#ffffff" points="53,-66 57.7813,-63.3164 55.4902,-65.7788 57.9804,-65.5576 57.9804,-65.5576 57.9804,-65.5576 55.4902,-65.7788 58.1795,-67.7988 53,-66 53,-66"/>
</g>
<!-- e1 -->
<g id="node2" class="node">
<title>e1</title>
<path fill="none" stroke="#ffffff" d="M145,-135.2C145,-135.2 186.5,-135.2 186.5,-135.2 192.5,-135.2 198.5,-141.2 198.5,-147.2 198.5,-147.2 198.5,-172.8 198.5,-172.8 198.5,-178.8 192.5,-184.8 186.5,-184.8 186.5,-184.8 145,-184.8 145,-184.8 139,-184.8 133,-178.8 133,-172.8 133,-172.8 133,-147.2 133,-147.2 133,-141.2 139,-135.2 145,-135.2"/>
<text text-anchor="middle" x="142.75" y="-156.2" font-family="Times,serif" font-size="14.00" fill="#ffffff"> </text>
<polyline fill="none" stroke="#ffffff" points="152.5,-135.2 152.5,-184.8 "/>
<text text-anchor="middle" x="165.75" y="-155.8" font-family="Times,serif" font-size="14.00" fill="#ffffff">⋏</text>
<polyline fill="none" stroke="#ffffff" points="179,-135.2 179,-184.8 "/>
<text text-anchor="middle" x="188.75" y="-168.2" font-family="Times,serif" font-size="14.00" fill="#ffffff"> </text>
<polyline fill="none" stroke="#ffffff" points="179,-160 198.5,-160 "/>
<text text-anchor="middle" x="188.75" y="-143.4" font-family="Times,serif" font-size="14.00" fill="#ffffff"> </text>
</g>
<!-- v1_t0_e29_s0 -->
<g id="node15" class="node">
<title>v1_t0_e29_s0</title>
<ellipse fill="#ffffff" stroke="#ffffff" cx="238" cy="-172" rx="3.5" ry="3.5"/>
</g>
<!-- e1&#45;&gt;v1_t0_e29_s0 -->
<g id="edge4" class="edge">
<title>e1:e-&gt;v1_t0_e29_s0:w</title>
<path fill="none" stroke="#ffffff" d="M203.6692,-172C215.6023,-172 220.375,-172 234.5,-172"/>
<polygon fill="#ffffff" stroke="#ffffff" points="198.5,-172 203.5,-169.7501 201,-172 203.5,-172.0001 203.5,-172.0001 203.5,-172.0001 201,-172 203.5,-174.2501 198.5,-172 198.5,-172"/>
</g>
<!-- v1_t1_e66_s0 -->
<g id="node16" class="node">
<title>v1_t1_e66_s0</title>
<ellipse fill="#ffffff" stroke="#ffffff" cx="238" cy="-143" rx="3.5" ry="3.5"/>
</g>
<!-- e1&#45;&gt;v1_t1_e66_s0 -->
<g id="edge5" class="edge">
<title>e1:e-&gt;v1_t1_e66_s0:w</title>
<path fill="none" stroke="#ffffff" d="M203.7057,-147.8101C215.6902,-146.8968 220.2394,-143 234.5,-143"/>
<polygon fill="#ffffff" stroke="#ffffff" points="198.5,-148 203.4146,-145.5691 200.9983,-147.9088 203.4967,-147.8176 203.4967,-147.8176 203.4967,-147.8176 200.9983,-147.9088 203.5787,-150.0661 198.5,-148 198.5,-148"/>
</g>
<!-- e4 -->
<g id="node3" class="node">
<title>e4</title>
<path fill="none" stroke="#ffffff" d="M145,-66.2C145,-66.2 186.5,-66.2 186.5,-66.2 192.5,-66.2 198.5,-72.2 198.5,-78.2 198.5,-78.2 198.5,-103.8 198.5,-103.8 198.5,-109.8 192.5,-115.8 186.5,-115.8 186.5,-115.8 145,-115.8 145,-115.8 139,-115.8 133,-109.8 133,-103.8 133,-103.8 133,-78.2 133,-78.2 133,-72.2 139,-66.2 145,-66.2"/>
<text text-anchor="middle" x="142.75" y="-87.2" font-family="Times,serif" font-size="14.00" fill="#ffffff"> </text>
<polyline fill="none" stroke="#ffffff" points="152.5,-66.2 152.5,-115.8 "/>
<text text-anchor="middle" x="165.75" y="-86.8" font-family="Times,serif" font-size="14.00" fill="#ffffff">⋏</text>
<polyline fill="none" stroke="#ffffff" points="179,-66.2 179,-115.8 "/>
<text text-anchor="middle" x="188.75" y="-99.2" font-family="Times,serif" font-size="14.00" fill="#ffffff"> </text>
<polyline fill="none" stroke="#ffffff" points="179,-91 198.5,-91 "/>
<text text-anchor="middle" x="188.75" y="-74.4" font-family="Times,serif" font-size="14.00" fill="#ffffff"> </text>
</g>
<!-- v4_t0_e29_s1 -->
<g id="node17" class="node">
<title>v4_t0_e29_s1</title>
<ellipse fill="#ffffff" stroke="#ffffff" cx="238" cy="-109" rx="3.5" ry="3.5"/>
</g>
<!-- e4&#45;&gt;v4_t0_e29_s1 -->
<g id="edge6" class="edge">
<title>e4:e-&gt;v4_t0_e29_s1:w</title>
<path fill="none" stroke="#ffffff" d="M203.7217,-103.2279C215.7286,-104.3239 220.1802,-109 234.5,-109"/>
<polygon fill="#ffffff" stroke="#ffffff" points="198.5,-103 203.5934,-100.9702 200.9976,-103.109 203.4952,-103.2181 203.4952,-103.2181 203.4952,-103.2181 200.9976,-103.109 203.3971,-105.466 198.5,-103 198.5,-103"/>
</g>
<!-- v4_t1_e66_s1 -->
<g id="node18" class="node">
<title>v4_t1_e66_s1</title>
<ellipse fill="#ffffff" stroke="#ffffff" cx="238" cy="-79" rx="3.5" ry="3.5"/>
</g>
<!-- e4&#45;&gt;v4_t1_e66_s1 -->
<g id="edge7" class="edge">
<title>e4:e-&gt;v4_t1_e66_s1:w</title>
<path fill="none" stroke="#ffffff" d="M203.6692,-79C215.6023,-79 220.375,-79 234.5,-79"/>
<polygon fill="#ffffff" stroke="#ffffff" points="198.5,-79 203.5,-76.7501 201,-79 203.5,-79.0001 203.5,-79.0001 203.5,-79.0001 201,-79 203.5,-81.2501 198.5,-79 198.5,-79"/>
</g>
<!-- e29 -->
<g id="node4" class="node">
<title>e29</title>
<path fill="none" stroke="#ffffff" d="M289.885,-135.2C289.885,-135.2 350.4348,-135.2 350.4348,-135.2 356.4348,-135.2 362.4348,-141.2 362.4348,-147.2 362.4348,-147.2 362.4348,-172.8 362.4348,-172.8 362.4348,-178.8 356.4348,-184.8 350.4348,-184.8 350.4348,-184.8 289.885,-184.8 289.885,-184.8 283.885,-184.8 277.885,-178.8 277.885,-172.8 277.885,-172.8 277.885,-147.2 277.885,-147.2 277.885,-141.2 283.885,-135.2 289.885,-135.2"/>
<text text-anchor="middle" x="287.635" y="-168.2" font-family="Times,serif" font-size="14.00" fill="#ffffff"> </text>
<polyline fill="none" stroke="#ffffff" points="277.885,-160 297.385,-160 "/>
<text text-anchor="middle" x="287.635" y="-143.4" font-family="Times,serif" font-size="14.00" fill="#ffffff"> </text>
<polyline fill="none" stroke="#ffffff" points="297.385,-135.2 297.385,-184.8 "/>
<text text-anchor="middle" x="320.1599" y="-155.8" font-family="Times,serif" font-size="14.00" fill="#ffffff">XOR</text>
<polyline fill="none" stroke="#ffffff" points="342.9348,-135.2 342.9348,-184.8 "/>
<text text-anchor="middle" x="352.6848" y="-156.2" font-family="Times,serif" font-size="14.00" fill="#ffffff"> </text>
</g>
<!-- v29_t0_e36_s0 -->
<g id="node19" class="node">
<title>v29_t0_e36_s0</title>
<ellipse fill="#ffffff" stroke="#ffffff" cx="402.3198" cy="-141" rx="3.5" ry="3.5"/>
</g>
<!-- e29&#45;&gt;v29_t0_e36_s0 -->
<g id="edge8" class="edge">
<title>e29:e-&gt;v29_t0_e36_s0:w</title>
<path fill="none" stroke="#ffffff" d="M367.2207,-159.4519C380.6924,-156.3366 382.3321,-141 398.8198,-141"/>
<polygon fill="#ffffff" stroke="#ffffff" points="362.1599,-160 366.8885,-157.2246 364.6454,-159.7308 367.1308,-159.4615 367.1308,-159.4615 367.1308,-159.4615 364.6454,-159.7308 367.3732,-161.6984 362.1599,-160 362.1599,-160"/>
</g>
<!-- e36 -->
<g id="node5" class="node">
<title>e36</title>
<path fill="none" stroke="#ffffff" d="M453.8198,-97.2C453.8198,-97.2 495.3198,-97.2 495.3198,-97.2 501.3198,-97.2 507.3198,-103.2 507.3198,-109.2 507.3198,-109.2 507.3198,-134.8 507.3198,-134.8 507.3198,-140.8 501.3198,-146.8 495.3198,-146.8 495.3198,-146.8 453.8198,-146.8 453.8198,-146.8 447.8198,-146.8 441.8198,-140.8 441.8198,-134.8 441.8198,-134.8 441.8198,-109.2 441.8198,-109.2 441.8198,-103.2 447.8198,-97.2 453.8198,-97.2"/>
<text text-anchor="middle" x="451.5698" y="-118.2" font-family="Times,serif" font-size="14.00" fill="#ffffff"> </text>
<polyline fill="none" stroke="#ffffff" points="461.3198,-97.2 461.3198,-146.8 "/>
<text text-anchor="middle" x="474.5698" y="-117.8" font-family="Times,serif" font-size="14.00" fill="#ffffff">⋏</text>
<polyline fill="none" stroke="#ffffff" points="487.8198,-97.2 487.8198,-146.8 "/>
<text text-anchor="middle" x="497.5698" y="-130.2" font-family="Times,serif" font-size="14.00" fill="#ffffff"> </text>
<polyline fill="none" stroke="#ffffff" points="487.8198,-122 507.3198,-122 "/>
<text text-anchor="middle" x="497.5698" y="-105.4" font-family="Times,serif" font-size="14.00" fill="#ffffff"> </text>
</g>
<!-- v36_t0_e58_s0 -->
<g id="node20" class="node">
<title>v36_t0_e58_s0</title>
<ellipse fill="#ffffff" stroke="#ffffff" cx="546.8198" cy="-134" rx="3.5" ry="3.5"/>
</g>
<!-- e36&#45;&gt;v36_t0_e58_s0 -->
<g id="edge9" class="edge">
<title>e36:e-&gt;v36_t0_e58_s0:w</title>
<path fill="none" stroke="#ffffff" d="M512.489,-134C524.4221,-134 529.1948,-134 543.3198,-134"/>
<polygon fill="#ffffff" stroke="#ffffff" points="507.3198,-134 512.3198,-131.7501 509.8198,-134 512.3198,-134.0001 512.3198,-134.0001 512.3198,-134.0001 509.8198,-134 512.3198,-136.2501 507.3198,-134 507.3198,-134"/>
</g>
<!-- v36_t1_e61_s0 -->
<g id="node21" class="node">
<title>v36_t1_e61_s0</title>
<ellipse fill="#ffffff" stroke="#ffffff" cx="546.8198" cy="-105" rx="3.5" ry="3.5"/>
</g>
<!-- e36&#45;&gt;v36_t1_e61_s0 -->
<g id="edge10" class="edge">
<title>e36:e-&gt;v36_t1_e61_s0:w</title>
<path fill="none" stroke="#ffffff" d="M512.5255,-109.8101C524.51,-108.8968 529.0592,-105 543.3198,-105"/>
<polygon fill="#ffffff" stroke="#ffffff" points="507.3198,-110 512.2344,-107.5691 509.8181,-109.9088 512.3165,-109.8176 512.3165,-109.8176 512.3165,-109.8176 509.8181,-109.9088 512.3985,-112.0661 507.3198,-110 507.3198,-110"/>
</g>
<!-- e39 -->
<g id="node6" class="node">
<title>e39</title>
<path fill="none" stroke="#ffffff" d="M453.8198,-28.2C453.8198,-28.2 495.3198,-28.2 495.3198,-28.2 501.3198,-28.2 507.3198,-34.2 507.3198,-40.2 507.3198,-40.2 507.3198,-65.8 507.3198,-65.8 507.3198,-71.8 501.3198,-77.8 495.3198,-77.8 495.3198,-77.8 453.8198,-77.8 453.8198,-77.8 447.8198,-77.8 441.8198,-71.8 441.8198,-65.8 441.8198,-65.8 441.8198,-40.2 441.8198,-40.2 441.8198,-34.2 447.8198,-28.2 453.8198,-28.2"/>
<text text-anchor="middle" x="451.5698" y="-49.2" font-family="Times,serif" font-size="14.00" fill="#ffffff"> </text>
<polyline fill="none" stroke="#ffffff" points="461.3198,-28.2 461.3198,-77.8 "/>
<text text-anchor="middle" x="474.5698" y="-48.8" font-family="Times,serif" font-size="14.00" fill="#ffffff">⋏</text>
<polyline fill="none" stroke="#ffffff" points="487.8198,-28.2 487.8198,-77.8 "/>
<text text-anchor="middle" x="497.5698" y="-61.2" font-family="Times,serif" font-size="14.00" fill="#ffffff"> </text>
<polyline fill="none" stroke="#ffffff" points="487.8198,-53 507.3198,-53 "/>
<text text-anchor="middle" x="497.5698" y="-36.4" font-family="Times,serif" font-size="14.00" fill="#ffffff"> </text>
</g>
<!-- v39_t0_e58_s1 -->
<g id="node22" class="node">
<title>v39_t0_e58_s1</title>
<ellipse fill="#ffffff" stroke="#ffffff" cx="546.8198" cy="-75" rx="3.5" ry="3.5"/>
</g>
<!-- e39&#45;&gt;v39_t0_e58_s1 -->
<g id="edge11" class="edge">
<title>e39:e-&gt;v39_t0_e58_s1:w</title>
<path fill="none" stroke="#ffffff" d="M512.3089,-65.3327C524.7009,-67.0679 528.5302,-75 543.3198,-75"/>
<polygon fill="#ffffff" stroke="#ffffff" points="507.3198,-65 512.4585,-63.0878 509.8143,-65.1664 512.3087,-65.3328 512.3087,-65.3328 512.3087,-65.3328 509.8143,-65.1664 512.159,-67.5778 507.3198,-65 507.3198,-65"/>
</g>
<!-- v39_t1_e61_s1 -->
<g id="node23" class="node">
<title>v39_t1_e61_s1</title>
<ellipse fill="#ffffff" stroke="#ffffff" cx="546.8198" cy="-41" rx="3.5" ry="3.5"/>
</g>
<!-- e39&#45;&gt;v39_t1_e61_s1 -->
<g id="edge12" class="edge">
<title>e39:e-&gt;v39_t1_e61_s1:w</title>
<path fill="none" stroke="#ffffff" d="M512.489,-41C524.4221,-41 529.1948,-41 543.3198,-41"/>
<polygon fill="#ffffff" stroke="#ffffff" points="507.3198,-41 512.3198,-38.7501 509.8198,-41 512.3198,-41.0001 512.3198,-41.0001 512.3198,-41.0001 509.8198,-41 512.3198,-43.2501 507.3198,-41 507.3198,-41"/>
</g>
<!-- e58 -->
<g id="node7" class="node">
<title>e58</title>
<path fill="none" stroke="#ffffff" d="M598.7048,-97.2C598.7048,-97.2 659.2546,-97.2 659.2546,-97.2 665.2546,-97.2 671.2546,-103.2 671.2546,-109.2 671.2546,-109.2 671.2546,-134.8 671.2546,-134.8 671.2546,-140.8 665.2546,-146.8 659.2546,-146.8 659.2546,-146.8 598.7048,-146.8 598.7048,-146.8 592.7048,-146.8 586.7048,-140.8 586.7048,-134.8 586.7048,-134.8 586.7048,-109.2 586.7048,-109.2 586.7048,-103.2 592.7048,-97.2 598.7048,-97.2"/>
<text text-anchor="middle" x="596.4548" y="-130.2" font-family="Times,serif" font-size="14.00" fill="#ffffff"> </text>
<polyline fill="none" stroke="#ffffff" points="586.7048,-122 606.2048,-122 "/>
<text text-anchor="middle" x="596.4548" y="-105.4" font-family="Times,serif" font-size="14.00" fill="#ffffff"> </text>
<polyline fill="none" stroke="#ffffff" points="606.2048,-97.2 606.2048,-146.8 "/>
<text text-anchor="middle" x="628.9797" y="-117.8" font-family="Times,serif" font-size="14.00" fill="#ffffff">XOR</text>
<polyline fill="none" stroke="#ffffff" points="651.7546,-97.2 651.7546,-146.8 "/>
<text text-anchor="middle" x="661.5046" y="-118.2" font-family="Times,serif" font-size="14.00" fill="#ffffff"> </text>
</g>
<!-- v58_t0_e76_s0 -->
<g id="node24" class="node">
<title>v58_t0_e76_s0</title>
<ellipse fill="#ffffff" stroke="#ffffff" cx="787.8612" cy="-105" rx="3.5" ry="3.5"/>
</g>
<!-- e58&#45;&gt;v58_t0_e76_s0 -->
<g id="edge13" class="edge">
<title>e58:e-&gt;v58_t0_e76_s0:w</title>
<path fill="none" stroke="#ffffff" d="M676.1883,-121.9384C722.5659,-120.8257 734.9096,-105 783.8612,-105"/>
<polygon fill="#ffffff" stroke="#ffffff" points="670.9797,-122 675.9527,-119.691 673.4795,-121.9704 675.9794,-121.9408 675.9794,-121.9408 675.9794,-121.9408 673.4795,-121.9704 676.006,-124.1907 670.9797,-122 670.9797,-122"/>
</g>
<!-- e61 -->
<g id="node8" class="node">
<title>e61</title>
<path fill="none" stroke="#ffffff" d="M598.3198,-28.2C598.3198,-28.2 659.6396,-28.2 659.6396,-28.2 665.6396,-28.2 671.6396,-34.2 671.6396,-40.2 671.6396,-40.2 671.6396,-65.8 671.6396,-65.8 671.6396,-71.8 665.6396,-77.8 659.6396,-77.8 659.6396,-77.8 598.3198,-77.8 598.3198,-77.8 592.3198,-77.8 586.3198,-71.8 586.3198,-65.8 586.3198,-65.8 586.3198,-40.2 586.3198,-40.2 586.3198,-34.2 592.3198,-28.2 598.3198,-28.2"/>
<text text-anchor="middle" x="596.0698" y="-61.2" font-family="Times,serif" font-size="14.00" fill="#ffffff"> </text>
<polyline fill="none" stroke="#ffffff" points="586.3198,-53 605.8198,-53 "/>
<text text-anchor="middle" x="596.0698" y="-36.4" font-family="Times,serif" font-size="14.00" fill="#ffffff"> </text>
<polyline fill="none" stroke="#ffffff" points="605.8198,-28.2 605.8198,-77.8 "/>
<text text-anchor="middle" x="628.9797" y="-48.8" font-family="Times,serif" font-size="14.00" fill="#ffffff">AND</text>
<polyline fill="none" stroke="#ffffff" points="652.1396,-28.2 652.1396,-77.8 "/>
<text text-anchor="middle" x="661.8896" y="-49.2" font-family="Times,serif" font-size="14.00" fill="#ffffff"> </text>
</g>
<!-- v61_t0_e73_s0 -->
<g id="node25" class="node">
<title>v61_t0_e73_s0</title>
<ellipse fill="#ffffff" stroke="#ffffff" cx="711.1396" cy="-53" rx="3.5" ry="3.5"/>
</g>
<!-- e61&#45;&gt;v61_t0_e73_s0 -->
<g id="edge14" class="edge">
<title>e61:e-&gt;v61_t0_e73_s0:w</title>
<path fill="none" stroke="#ffffff" d="M676.8088,-53C688.7419,-53 693.5146,-53 707.6396,-53"/>
<polygon fill="#ffffff" stroke="#ffffff" points="671.6396,-53 676.6396,-50.7501 674.1396,-53 676.6396,-53.0001 676.6396,-53.0001 676.6396,-53.0001 674.1396,-53 676.6396,-55.2501 671.6396,-53 671.6396,-53"/>
</g>
<!-- e66 -->
<g id="node9" class="node">
<title>e66</title>
<path fill="none" stroke="#ffffff" d="M289.5,-66.2C289.5,-66.2 350.8198,-66.2 350.8198,-66.2 356.8198,-66.2 362.8198,-72.2 362.8198,-78.2 362.8198,-78.2 362.8198,-103.8 362.8198,-103.8 362.8198,-109.8 356.8198,-115.8 350.8198,-115.8 350.8198,-115.8 289.5,-115.8 289.5,-115.8 283.5,-115.8 277.5,-109.8 277.5,-103.8 277.5,-103.8 277.5,-78.2 277.5,-78.2 277.5,-72.2 283.5,-66.2 289.5,-66.2"/>
<text text-anchor="middle" x="287.25" y="-99.2" font-family="Times,serif" font-size="14.00" fill="#ffffff"> </text>
<polyline fill="none" stroke="#ffffff" points="277.5,-91 297,-91 "/>
<text text-anchor="middle" x="287.25" y="-74.4" font-family="Times,serif" font-size="14.00" fill="#ffffff"> </text>
<polyline fill="none" stroke="#ffffff" points="297,-66.2 297,-115.8 "/>
<text text-anchor="middle" x="320.1599" y="-86.8" font-family="Times,serif" font-size="14.00" fill="#ffffff">AND</text>
<polyline fill="none" stroke="#ffffff" points="343.3198,-66.2 343.3198,-115.8 "/>
<text text-anchor="middle" x="353.0698" y="-87.2" font-family="Times,serif" font-size="14.00" fill="#ffffff"> </text>
</g>
<!-- v66_t0_e73_s1 -->
<g id="node26" class="node">
<title>v66_t0_e73_s1</title>
<ellipse fill="#ffffff" stroke="#ffffff" cx="711.1396" cy="-14" rx="3.5" ry="3.5"/>
</g>
<!-- e66&#45;&gt;v66_t0_e73_s1 -->
<g id="edge15" class="edge">
<title>e66:e-&gt;v66_t0_e73_s1:w</title>
<path fill="none" stroke="#ffffff" d="M367.8969,-90.7996C426.0367,-86.0915 412.2702,0 474.5698,0 474.5698,0 474.5698,0 546.8198,0 618.5656,0 635.8938,-14 707.6396,-14"/>
<polygon fill="#ffffff" stroke="#ffffff" points="362.8198,-91 367.7271,-88.5545 365.3179,-90.9014 367.8159,-90.8027 367.8159,-90.8027 367.8159,-90.8027 365.3179,-90.9014 367.9047,-93.051 362.8198,-91 362.8198,-91"/>
</g>
<!-- e73 -->
<g id="node10" class="node">
<title>e73</title>
<path fill="none" stroke="#ffffff" d="M762.6396,-16.2C762.6396,-16.2 813.0828,-16.2 813.0828,-16.2 819.0828,-16.2 825.0828,-22.2 825.0828,-28.2 825.0828,-28.2 825.0828,-53.8 825.0828,-53.8 825.0828,-59.8 819.0828,-65.8 813.0828,-65.8 813.0828,-65.8 762.6396,-65.8 762.6396,-65.8 756.6396,-65.8 750.6396,-59.8 750.6396,-53.8 750.6396,-53.8 750.6396,-28.2 750.6396,-28.2 750.6396,-22.2 756.6396,-16.2 762.6396,-16.2"/>
<text text-anchor="middle" x="760.3896" y="-49.2" font-family="Times,serif" font-size="14.00" fill="#ffffff"> </text>
<polyline fill="none" stroke="#ffffff" points="750.6396,-41 770.1396,-41 "/>
<text text-anchor="middle" x="760.3896" y="-24.4" font-family="Times,serif" font-size="14.00" fill="#ffffff"> </text>
<polyline fill="none" stroke="#ffffff" points="770.1396,-16.2 770.1396,-65.8 "/>
<text text-anchor="middle" x="787.8612" y="-36.8" font-family="Times,serif" font-size="14.00" fill="#ffffff">OR</text>
<polyline fill="none" stroke="#ffffff" points="805.5828,-16.2 805.5828,-65.8 "/>
<text text-anchor="middle" x="815.3328" y="-37.2" font-family="Times,serif" font-size="14.00" fill="#ffffff"> </text>
</g>
<!-- v73_t0_e76_s1 -->
<g id="node27" class="node">
<title>v73_t0_e76_s1</title>
<ellipse fill="#ffffff" stroke="#ffffff" cx="864.5828" cy="-57" rx="3.5" ry="3.5"/>
</g>
<!-- e73&#45;&gt;v73_t0_e76_s1 -->
<g id="edge16" class="edge">
<title>e73:e-&gt;v73_t0_e76_s1:w</title>
<path fill="none" stroke="#ffffff" d="M830.0844,-41.5323C842.8825,-44.3086 845.4086,-57 861.0828,-57"/>
<polygon fill="#ffffff" stroke="#ffffff" points="824.8612,-41 830.0636,-39.2687 827.3483,-41.2535 829.8354,-41.5071 829.8354,-41.5071 829.8354,-41.5071 827.3483,-41.2535 829.6073,-43.7455 824.8612,-41 824.8612,-41"/>
</g>
<!-- e76 -->
<g id="node11" class="node">
<title>e76</title>
<path fill="none" stroke="#ffffff" d="M916.0828,-48.2C916.0828,-48.2 946.0828,-48.2 946.0828,-48.2 952.0828,-48.2 958.0828,-54.2 958.0828,-60.2 958.0828,-60.2 958.0828,-85.8 958.0828,-85.8 958.0828,-91.8 952.0828,-97.8 946.0828,-97.8 946.0828,-97.8 916.0828,-97.8 916.0828,-97.8 910.0828,-97.8 904.0828,-91.8 904.0828,-85.8 904.0828,-85.8 904.0828,-60.2 904.0828,-60.2 904.0828,-54.2 910.0828,-48.2 916.0828,-48.2"/>
<text text-anchor="middle" x="916.3328" y="-81.2" font-family="Times,serif" font-size="14.00" fill="#ffffff"> </text>
<polyline fill="none" stroke="#ffffff" points="904.0828,-73 928.5828,-73 "/>
<text text-anchor="middle" x="916.3328" y="-56.4" font-family="Times,serif" font-size="14.00" fill="#ffffff"> </text>
<polyline fill="none" stroke="#ffffff" points="928.5828,-48.2 928.5828,-97.8 "/>
<text text-anchor="middle" x="943.1631" y="-68.8" font-family="Times,serif" font-size="14.00" fill="#ffffff">ω</text>
</g>
<!-- v0_t0_e1_s0&#45;&gt;e1 -->
<g id="edge17" class="edge">
<title>v0_t0_e1_s0:e-&gt;e1:w</title>
<path fill="none" stroke="#ffffff" d="M97,-138C113.8467,-138 114.3451,-155.7582 127.8711,-159.3653"/>
<polygon fill="#ffffff" stroke="#ffffff" points="133,-160 127.7615,-161.6188 130.5189,-159.6929 128.0378,-159.3859 128.0378,-159.3859 128.0378,-159.3859 130.5189,-159.6929 128.3142,-157.1529 133,-160 133,-160"/>
</g>
<!-- v0_t1_e4_s0&#45;&gt;e4 -->
<g id="edge18" class="edge">
<title>v0_t1_e4_s0:e-&gt;e4:w</title>
<path fill="none" stroke="#ffffff" d="M97,-91C111.125,-91 115.8977,-91 127.8308,-91"/>
<polygon fill="#ffffff" stroke="#ffffff" points="133,-91 128,-93.2501 130.5,-91 128,-91.0001 128,-91.0001 128,-91.0001 130.5,-91 128,-88.7501 133,-91 133,-91"/>
</g>
<!-- v0_t2_e39_s0&#45;&gt;e39 -->
<g id="edge19" class="edge">
<title>v0_t2_e39_s0:e-&gt;e39:w</title>
<path fill="none" stroke="#ffffff" d="M97,-52C159.9748,-52 175.0252,-38 238,-38 238,-38 238,-38 320.1599,-38 372.8315,-38 386.45,-52.0204 436.5282,-52.9515"/>
<polygon fill="#ffffff" stroke="#ffffff" points="441.8198,-53 436.7993,-55.204 439.3199,-52.977 436.82,-52.9541 436.82,-52.9541 436.82,-52.9541 439.3199,-52.977 436.8407,-50.7042 441.8198,-53 441.8198,-53"/>
</g>
<!-- v1_t0_e29_s0&#45;&gt;e29 -->
<g id="edge20" class="edge">
<title>v1_t0_e29_s0:e-&gt;e29:w</title>
<path fill="none" stroke="#ffffff" d="M241.5,-172C255.8839,-172 260.7441,-172 272.8959,-172"/>
<polygon fill="#ffffff" stroke="#ffffff" points="278.1599,-172 273.1599,-174.2501 275.6599,-172 273.1599,-172.0001 273.1599,-172.0001 273.1599,-172.0001 275.6599,-172 273.1599,-169.7501 278.1599,-172 278.1599,-172"/>
</g>
<!-- v1_t1_e66_s0&#45;&gt;e66 -->
<g id="edge21" class="edge">
<title>v1_t1_e66_s0:e-&gt;e66:w</title>
<path fill="none" stroke="#ffffff" d="M241.5,-143C263.549,-143 255.2135,-109.0059 272.5149,-103.6943"/>
<polygon fill="#ffffff" stroke="#ffffff" points="277.5,-103 272.8582,-105.9183 275.0239,-103.3449 272.5478,-103.6898 272.5478,-103.6898 272.5478,-103.6898 275.0239,-103.3449 272.2374,-101.4613 277.5,-103 277.5,-103"/>
</g>
<!-- v4_t0_e29_s1&#45;&gt;e29 -->
<g id="edge22" class="edge">
<title>v4_t0_e29_s1:e-&gt;e29:w</title>
<path fill="none" stroke="#ffffff" d="M241.5,-109C263.4305,-109 255.865,-142.1443 273.1868,-147.3231"/>
<polygon fill="#ffffff" stroke="#ffffff" points="278.1599,-148 272.9021,-149.555 275.6827,-147.6628 273.2056,-147.3256 273.2056,-147.3256 273.2056,-147.3256 275.6827,-147.6628 273.5091,-145.0961 278.1599,-148 278.1599,-148"/>
</g>
<!-- v4_t1_e66_s1&#45;&gt;e66 -->
<g id="edge23" class="edge">
<title>v4_t1_e66_s1:e-&gt;e66:w</title>
<path fill="none" stroke="#ffffff" d="M241.5,-79C255.625,-79 260.3977,-79 272.3308,-79"/>
<polygon fill="#ffffff" stroke="#ffffff" points="277.5,-79 272.5,-81.2501 275,-79 272.5,-79.0001 272.5,-79.0001 272.5,-79.0001 275,-79 272.5,-76.7501 277.5,-79 277.5,-79"/>
</g>
<!-- v29_t0_e36_s0&#45;&gt;e36 -->
<g id="edge24" class="edge">
<title>v29_t0_e36_s0:e-&gt;e36:w</title>
<path fill="none" stroke="#ffffff" d="M405.8198,-141C422.074,-141 423.5769,-125.6634 436.8347,-122.5481"/>
<polygon fill="#ffffff" stroke="#ffffff" points="441.8198,-122 437.0957,-124.7831 439.3348,-122.2733 436.8498,-122.5466 436.8498,-122.5466 436.8498,-122.5466 439.3348,-122.2733 436.6038,-120.3101 441.8198,-122 441.8198,-122"/>
</g>
<!-- v36_t0_e58_s0&#45;&gt;e58 -->
<g id="edge25" class="edge">
<title>v36_t0_e58_s0:e-&gt;e58:w</title>
<path fill="none" stroke="#ffffff" d="M550.3198,-134C564.7037,-134 569.5639,-134 581.7157,-134"/>
<polygon fill="#ffffff" stroke="#ffffff" points="586.9797,-134 581.9797,-136.2501 584.4797,-134 581.9797,-134.0001 581.9797,-134.0001 581.9797,-134.0001 584.4797,-134 581.9797,-131.7501 586.9797,-134 586.9797,-134"/>
</g>
<!-- v36_t1_e61_s0&#45;&gt;e61 -->
<g id="edge26" class="edge">
<title>v36_t1_e61_s0:e-&gt;e61:w</title>
<path fill="none" stroke="#ffffff" d="M550.3198,-105C572.3688,-105 564.0333,-71.0059 581.3347,-65.6943"/>
<polygon fill="#ffffff" stroke="#ffffff" points="586.3198,-65 581.678,-67.9183 583.8437,-65.3449 581.3676,-65.6898 581.3676,-65.6898 581.3676,-65.6898 583.8437,-65.3449 581.0572,-63.4613 586.3198,-65 586.3198,-65"/>
</g>
<!-- v39_t0_e58_s1&#45;&gt;e58 -->
<g id="edge27" class="edge">
<title>v39_t0_e58_s1:e-&gt;e58:w</title>
<path fill="none" stroke="#ffffff" d="M550.3198,-75C570.9105,-75 565.6674,-104.2429 581.8179,-109.269"/>
<polygon fill="#ffffff" stroke="#ffffff" points="586.9797,-110 581.7136,-111.5266 584.5044,-109.6494 582.0291,-109.2988 582.0291,-109.2988 582.0291,-109.2988 584.5044,-109.6494 582.3446,-107.071 586.9797,-110 586.9797,-110"/>
</g>
<!-- v39_t1_e61_s1&#45;&gt;e61 -->
<g id="edge28" class="edge">
<title>v39_t1_e61_s1:e-&gt;e61:w</title>
<path fill="none" stroke="#ffffff" d="M550.3198,-41C564.4448,-41 569.2175,-41 581.1506,-41"/>
<polygon fill="#ffffff" stroke="#ffffff" points="586.3198,-41 581.3198,-43.2501 583.8198,-41 581.3198,-41.0001 581.3198,-41.0001 581.3198,-41.0001 583.8198,-41 581.3198,-38.7501 586.3198,-41 586.3198,-41"/>
</g>
<!-- v58_t0_e76_s0&#45;&gt;e76 -->
<g id="edge29" class="edge">
<title>v58_t0_e76_s0:e-&gt;e76:w</title>
<path fill="none" stroke="#ffffff" d="M791.8612,-105C840.7423,-105 852.6053,-86.3815 898.8835,-85.0724"/>
<polygon fill="#ffffff" stroke="#ffffff" points="904.0828,-85 899.1147,-87.3195 901.583,-85.0349 899.0833,-85.0697 899.0833,-85.0697 899.0833,-85.0697 901.583,-85.0349 899.0519,-82.82 904.0828,-85 904.0828,-85"/>
</g>
<!-- v61_t0_e73_s0&#45;&gt;e73 -->
<g id="edge30" class="edge">
<title>v61_t0_e73_s0:e-&gt;e73:w</title>
<path fill="none" stroke="#ffffff" d="M714.6396,-53C728.8515,-53 733.6536,-53 745.6601,-53"/>
<polygon fill="#ffffff" stroke="#ffffff" points="750.8612,-53 745.8612,-55.2501 748.3612,-53 745.8612,-53.0001 745.8612,-53.0001 745.8612,-53.0001 748.3612,-53 745.8612,-50.7501 750.8612,-53 750.8612,-53"/>
</g>
<!-- v66_t0_e73_s1&#45;&gt;e73 -->
<g id="edge31" class="edge">
<title>v66_t0_e73_s1:e-&gt;e73:w</title>
<path fill="none" stroke="#ffffff" d="M714.6396,-14C730.1581,-14 732.9445,-25.8982 745.6779,-28.5009"/>
<polygon fill="#ffffff" stroke="#ffffff" points="750.8612,-29 745.6685,-30.7603 748.3727,-28.7604 745.8842,-28.5207 745.8842,-28.5207 745.8842,-28.5207 748.3727,-28.7604 746.0999,-26.2811 750.8612,-29 750.8612,-29"/>
</g>
<!-- v73_t0_e76_s1&#45;&gt;e76 -->
<g id="edge32" class="edge">
<title>v73_t0_e76_s1:e-&gt;e76:w</title>
<path fill="none" stroke="#ffffff" d="M868.0828,-57C882.2947,-57 886.9241,-60.1174 898.8902,-60.8481"/>
<polygon fill="#ffffff" stroke="#ffffff" points="904.0828,-61 899.0191,-63.1027 901.5839,-60.9268 899.0849,-60.8537 899.0849,-60.8537 899.0849,-60.8537 901.5839,-60.9268 899.1508,-58.6046 904.0828,-61 904.0828,-61"/>
</g>
</g>
</svg>