<?xml version="1.0" encoding="UTF-8" standalone="no"?>
<!DOCTYPE svg PUBLIC "-//W3C//DTD SVG 1.1//EN" "http://www.w3.org/Graphics/SVG/1.1/DTD/svg11.dtd">
<!-- Generated by graphviz version 2.40.1 (20161225.0304)
 -->
<!-- Title: %0 Pages: 1 -->
<svg width="1075pt" height="193pt" viewBox="0.00 0.00 1074.90 193.30" xmlns="http://www.w3.org/2000/svg" xmlns:xlink="http://www.w3.org/1999/xlink">
<g id="graph0" class="graph" transform="scale(1 1) rotate(0) translate(4 189.3)">
<title>%0</title>
<polygon fill="#ffffff" stroke="transparent" points="-4,4 -4,-189.3 1070.904,-189.3 1070.904,4 -4,4"/>
<!-- e0 -->
<g id="node1" class="node">
<title>e0</title>
<path fill="none" stroke="#000000" d="M12,-53.8C12,-53.8 45.6606,-53.8 45.6606,-53.8 51.6606,-53.8 57.6606,-59.8 57.6606,-65.8 57.6606,-65.8 57.6606,-116.2 57.6606,-116.2 57.6606,-122.2 51.6606,-128.2 45.6606,-128.2 45.6606,-128.2 12,-128.2 12,-128.2 6,-128.2 0,-122.2 0,-116.2 0,-116.2 0,-65.8 0,-65.8 0,-59.8 6,-53.8 12,-53.8"/>
<text text-anchor="middle" x="13.8303" y="-86.8" font-family="Times,serif" font-size="14.00" fill="#000000">$\alpha$</text>
<polyline fill="none" stroke="#000000" points="27.6606,-53.8 27.6606,-128.2 "/>
<text text-anchor="middle" x="42.6606" y="-111.6" font-family="Times,serif" font-size="14.00" fill="#000000">•</text>
<polyline fill="none" stroke="#000000" points="27.6606,-103.4 57.6606,-103.4 "/>
<text text-anchor="middle" x="42.6606" y="-86.8" font-family="Times,serif" font-size="14.00" fill="#000000">•</text>
<polyline fill="none" stroke="#000000" points="27.6606,-78.6 57.6606,-78.6 "/>
<text text-anchor="middle" x="42.6606" y="-62" font-family="Times,serif" font-size="14.00" fill="#000000">•</text>
</g>
<!-- v0_t0_e1_s0 -->
<g id="node12" class="node">
<title>v0_t0_e1_s0</title>
<ellipse fill="#000000" stroke="#000000" cx="97.1606" cy="-138" rx="3.5" ry="3.5"/>
</g>
<!-- e0&#45;&gt;v0_t0_e1_s0 -->
<g id="edge1" class="edge">
<title>e0:e-&gt;v0_t0_e1_s0:w</title>
<path fill="none" stroke="#000000" d="M57.6606,-116C76.4117,-116 74.9095,-138 93.6606,-138"/>
</g>
<!-- v0_t1_e4_s0 -->
<g id="node13" class="node">
<title>v0_t1_e4_s0</title>
<ellipse fill="#000000" stroke="#000000" cx="97.1606" cy="-91" rx="3.5" ry="3.5"/>
</g>
<!-- e0&#45;&gt;v0_t1_e4_s0 -->
<g id="edge2" class="edge">
<title>e0:e-&gt;v0_t1_e4_s0:w</title>
<path fill="none" stroke="#000000" d="M57.6606,-91C73.6606,-91 77.6606,-91 93.6606,-91"/>
</g>
<!-- v0_t2_e39_s0 -->
<g id="node14" class="node">
<title>v0_t2_e39_s0</title>
<ellipse fill="#000000" stroke="#000000" cx="97.1606" cy="-52" rx="3.5" ry="3.5"/>
</g>
<!-- e0&#45;&gt;v0_t2_e39_s0 -->
<g id="edge3" class="edge">
<title>e0:e-&gt;v0_t2_e39_s0:w</title>
<path fill="none" stroke="#000000" d="M57.6606,-66C74.8279,-66 76.4933,-52 93.6606,-52"/>
</g>
<!-- e1 -->
<g id="node2" class="node">
<title>e1</title>
<path fill="none" stroke="#000000" d="M148.6606,-135.2C148.6606,-135.2 211.1606,-135.2 211.1606,-135.2 217.1606,-135.2 223.1606,-141.2 223.1606,-147.2 223.1606,-147.2 223.1606,-172.8 223.1606,-172.8 223.1606,-178.8 217.1606,-184.8 211.1606,-184.8 211.1606,-184.8 148.6606,-184.8 148.6606,-184.8 142.6606,-184.8 136.6606,-178.8 136.6606,-172.8 136.6606,-172.8 136.6606,-147.2 136.6606,-147.2 136.6606,-141.2 142.6606,-135.2 148.6606,-135.2"/>
<text text-anchor="middle" x="151.6606" y="-156.2" font-family="Times,serif" font-size="14.00" fill="#000000">•</text>
<polyline fill="none" stroke="#000000" points="166.6606,-135.2 166.6606,-184.8 "/>
<text text-anchor="middle" x="179.9106" y="-155.8" font-family="Times,serif" font-size="14.00" fill="#000000">$\fork$</text>
<polyline fill="none" stroke="#000000" points="193.1606,-135.2 193.1606,-184.8 "/>
<text text-anchor="middle" x="208.1606" y="-168.2" font-family="Times,serif" font-size="14.00" fill="#000000">•</text>
<polyline fill="none" stroke="#000000" points="193.1606,-160 223.1606,-160 "/>
<text text-anchor="middle" x="208.1606" y="-143.4" font-family="Times,serif" font-size="14.00" fill="#000000">•</text>
</g>
<!-- v1_t0_e29_s0 -->
<g id="node15" class="node">
<title>v1_t0_e29_s0</title>
<ellipse fill="#000000" stroke="#000000" cx="262.6606" cy="-172" rx="3.5" ry="3.5"/>
</g>
<!-- e1&#45;&gt;v1_t0_e29_s0 -->
<g id="edge4" class="edge">
<title>e1:e-&gt;v1_t0_e29_s0:w</title>
<path fill="none" stroke="#000000" d="M222.9106,-172C239.0217,-172 243.0495,-172 259.1606,-172"/>
</g>
<!-- v1_t1_e66_s0 -->
<g id="node16" class="node">
<title>v1_t1_e66_s0</title>
<ellipse fill="#000000" stroke="#000000" cx="262.6606" cy="-143" rx="3.5" ry="3.5"/>
</g>
<!-- e1&#45;&gt;v1_t1_e66_s0 -->
<g id="edge5" class="edge">
<title>e1:e-&gt;v1_t1_e66_s0:w</title>
<path fill="none" stroke="#000000" d="M222.9106,-148C239.1742,-148 242.897,-143 259.1606,-143"/>
</g>
<!-- e4 -->
<g id="node3" class="node">
<title>e4</title>
<path fill="none" stroke="#000000" d="M148.6606,-66.2C148.6606,-66.2 211.1606,-66.2 211.1606,-66.2 217.1606,-66.2 223.1606,-72.2 223.1606,-78.2 223.1606,-78.2 223.1606,-103.8 223.1606,-103.8 223.1606,-109.8 217.1606,-115.8 211.1606,-115.8 211.1606,-115.8 148.6606,-115.8 148.6606,-115.8 142.6606,-115.8 136.6606,-109.8 136.6606,-103.8 136.6606,-103.8 136.6606,-78.2 136.6606,-78.2 136.6606,-72.2 142.6606,-66.2 148.6606,-66.2"/>
<text text-anchor="middle" x="151.6606" y="-87.2" font-family="Times,serif" font-size="14.00" fill="#000000">•</text>
<polyline fill="none" stroke="#000000" points="166.6606,-66.2 166.6606,-115.8 "/>
<text text-anchor="middle" x="179.9106" y="-86.8" font-family="Times,serif" font-size="14.00" fill="#000000">$\fork$</text>
<polyline fill="none" stroke="#000000" points="193.1606,-66.2 193.1606,-115.8 "/>
<text text-anchor="middle" x="208.1606" y="-99.2" font-family="Times,serif" font-size="14.00" fill="#000000">•</text>
<polyline fill="none" stroke="#000000" points="193.1606,-91 223.1606,-91 "/>
<text text-anchor="middle" x="208.1606" y="-74.4" font-family="Times,serif" font-size="14.00" fill="#000000">•</text>
</g>
<!-- v4_t0_e29_s1 -->
<g id="node17" class="node">
<title>v4_t0_e29_s1</title>
<ellipse fill="#000000" stroke="#000000" cx="262.6606" cy="-109" rx="3.5" ry="3.5"/>
</g>
<!-- e4&#45;&gt;v4_t0_e29_s1 -->
<g id="edge6" class="edge">
<title>e4:e-&gt;v4_t0_e29_s1:w</title>
<path fill="none" stroke="#000000" d="M222.9106,-103C239.2409,-103 242.8303,-109 259.1606,-109"/>
</g>
<!-- v4_t1_e66_s1 -->
<g id="node18" class="node">
<title>v4_t1_e66_s1</title>
<ellipse fill="#000000" stroke="#000000" cx="262.6606" cy="-79" rx="3.5" ry="3.5"/>
</g>
<!-- e4&#45;&gt;v4_t1_e66_s1 -->
<g id="edge7" class="edge">
<title>e4:e-&gt;v4_t1_e66_s1:w</title>
<path fill="none" stroke="#000000" d="M222.9106,-79C239.0217,-79 243.0495,-79 259.1606,-79"/>
</g>
<!-- e29 -->
<g id="node4" class="node">
<title>e29</title>
<path fill="none" stroke="#000000" d="M314.5456,-135.2C314.5456,-135.2 396.0954,-135.2 396.0954,-135.2 402.0954,-135.2 408.0954,-141.2 408.0954,-147.2 408.0954,-147.2 408.0954,-172.8 408.0954,-172.8 408.0954,-178.8 402.0954,-184.8 396.0954,-184.8 396.0954,-184.8 314.5456,-184.8 314.5456,-184.8 308.5456,-184.8 302.5456,-178.8 302.5456,-172.8 302.5456,-172.8 302.5456,-147.2 302.5456,-147.2 302.5456,-141.2 308.5456,-135.2 314.5456,-135.2"/>
<text text-anchor="middle" x="317.5456" y="-168.2" font-family="Times,serif" font-size="14.00" fill="#000000">•</text>
<polyline fill="none" stroke="#000000" points="302.5456,-160 332.5456,-160 "/>
<text text-anchor="middle" x="317.5456" y="-143.4" font-family="Times,serif" font-size="14.00" fill="#000000">•</text>
<polyline fill="none" stroke="#000000" points="332.5456,-135.2 332.5456,-184.8 "/>
<text text-anchor="middle" x="355.3205" y="-155.8" font-family="Times,serif" font-size="14.00" fill="#000000">XOR</text>
<polyline fill="none" stroke="#000000" points="378.0954,-135.2 378.0954,-184.8 "/>
<text text-anchor="middle" x="393.0954" y="-156.2" font-family="Times,serif" font-size="14.00" fill="#000000">•</text>
</g>
<!-- v29_t0_e36_s0 -->
<g id="node19" class="node">
<title>v29_t0_e36_s0</title>
<ellipse fill="#000000" stroke="#000000" cx="447.9804" cy="-141" rx="3.5" ry="3.5"/>
</g>
<!-- e29&#45;&gt;v29_t0_e36_s0 -->
<g id="edge8" class="edge">
<title>e29:e-&gt;v29_t0_e36_s0:w</title>
<path fill="none" stroke="#000000" d="M408.3205,-160C426.4751,-160 426.3258,-141 444.4804,-141"/>
</g>
<!-- e36 -->
<g id="node5" class="node">
<title>e36</title>
<path fill="none" stroke="#000000" d="M499.4804,-97.2C499.4804,-97.2 561.9804,-97.2 561.9804,-97.2 567.9804,-97.2 573.9804,-103.2 573.9804,-109.2 573.9804,-109.2 573.9804,-134.8 573.9804,-134.8 573.9804,-140.8 567.9804,-146.8 561.9804,-146.8 561.9804,-146.8 499.4804,-146.8 499.4804,-146.8 493.4804,-146.8 487.4804,-140.8 487.4804,-134.8 487.4804,-134.8 487.4804,-109.2 487.4804,-109.2 487.4804,-103.2 493.4804,-97.2 499.4804,-97.2"/>
<text text-anchor="middle" x="502.4804" y="-118.2" font-family="Times,serif" font-size="14.00" fill="#000000">•</text>
<polyline fill="none" stroke="#000000" points="517.4804,-97.2 517.4804,-146.8 "/>
<text text-anchor="middle" x="530.7304" y="-117.8" font-family="Times,serif" font-size="14.00" fill="#000000">$\fork$</text>
<polyline fill="none" stroke="#000000" points="543.9804,-97.2 543.9804,-146.8 "/>
<text text-anchor="middle" x="558.9804" y="-130.2" font-family="Times,serif" font-size="14.00" fill="#000000">•</text>
<polyline fill="none" stroke="#000000" points="543.9804,-122 573.9804,-122 "/>
<text text-anchor="middle" x="558.9804" y="-105.4" font-family="Times,serif" font-size="14.00" fill="#000000">•</text>
</g>
<!-- v36_t0_e58_s0 -->
<g id="node20" class="node">
<title>v36_t0_e58_s0</title>
<ellipse fill="#000000" stroke="#000000" cx="613.4804" cy="-134" rx="3.5" ry="3.5"/>
</g>
<!-- e36&#45;&gt;v36_t0_e58_s0 -->
<g id="edge9" class="edge">
<title>e36:e-&gt;v36_t0_e58_s0:w</title>
<path fill="none" stroke="#000000" d="M573.7304,-134C589.8415,-134 593.8693,-134 609.9804,-134"/>
</g>
<!-- v36_t1_e61_s0 -->
<g id="node21" class="node">
<title>v36_t1_e61_s0</title>
<ellipse fill="#000000" stroke="#000000" cx="613.4804" cy="-105" rx="3.5" ry="3.5"/>
</g>
<!-- e36&#45;&gt;v36_t1_e61_s0 -->
<g id="edge10" class="edge">
<title>e36:e-&gt;v36_t1_e61_s0:w</title>
<path fill="none" stroke="#000000" d="M573.7304,-110C589.994,-110 593.7168,-105 609.9804,-105"/>
</g>
<!-- e39 -->
<g id="node6" class="node">
<title>e39</title>
<path fill="none" stroke="#000000" d="M499.4804,-28.2C499.4804,-28.2 561.9804,-28.2 561.9804,-28.2 567.9804,-28.2 573.9804,-34.2 573.9804,-40.2 573.9804,-40.2 573.9804,-65.8 573.9804,-65.8 573.9804,-71.8 567.9804,-77.8 561.9804,-77.8 561.9804,-77.8 499.4804,-77.8 499.4804,-77.8 493.4804,-77.8 487.4804,-71.8 487.4804,-65.8 487.4804,-65.8 487.4804,-40.2 487.4804,-40.2 487.4804,-34.2 493.4804,-28.2 499.4804,-28.2"/>
<text text-anchor="middle" x="502.4804" y="-49.2" font-family="Times,serif" font-size="14.00" fill="#000000">•</text>
<polyline fill="none" stroke="#000000" points="517.4804,-28.2 517.4804,-77.8 "/>
<text text-anchor="middle" x="530.7304" y="-48.8" font-family="Times,serif" font-size="14.00" fill="#000000">$\fork$</text>
<polyline fill="none" stroke="#000000" points="543.9804,-28.2 543.9804,-77.8 "/>
<text text-anchor="middle" x="558.9804" y="-61.2" font-family="Times,serif" font-size="14.00" fill="#000000">•</text>
<polyline fill="none" stroke="#000000" points="543.9804,-53 573.9804,-53 "/>
<text text-anchor="middle" x="558.9804" y="-36.4" font-family="Times,serif" font-size="14.00" fill="#000000">•</text>
</g>
<!-- v39_t0_e58_s1 -->
<g id="node22" class="node">
<title>v39_t0_e58_s1</title>
<ellipse fill="#000000" stroke="#000000" cx="613.4804" cy="-75" rx="3.5" ry="3.5"/>
</g>
<!-- e39&#45;&gt;v39_t0_e58_s1 -->
<g id="edge11" class="edge">
<title>e39:e-&gt;v39_t0_e58_s1:w</title>
<path fill="none" stroke="#000000" d="M573.7304,-65C590.4433,-65 593.2675,-75 609.9804,-75"/>
</g>
<!-- v39_t1_e61_s1 -->
<g id="node23" class="node">
<title>v39_t1_e61_s1</title>
<ellipse fill="#000000" stroke="#000000" cx="613.4804" cy="-41" rx="3.5" ry="3.5"/>
</g>
<!-- e39&#45;&gt;v39_t1_e61_s1 -->
<g id="edge12" class="edge">
<title>e39:e-&gt;v39_t1_e61_s1:w</title>
<path fill="none" stroke="#000000" d="M573.7304,-41C589.8415,-41 593.8693,-41 609.9804,-41"/>
</g>
<!-- e58 -->
<g id="node7" class="node">
<title>e58</title>
<path fill="none" stroke="#000000" d="M665.3654,-97.2C665.3654,-97.2 746.9152,-97.2 746.9152,-97.2 752.9152,-97.2 758.9152,-103.2 758.9152,-109.2 758.9152,-109.2 758.9152,-134.8 758.9152,-134.8 758.9152,-140.8 752.9152,-146.8 746.9152,-146.8 746.9152,-146.8 665.3654,-146.8 665.3654,-146.8 659.3654,-146.8 653.3654,-140.8 653.3654,-134.8 653.3654,-134.8 653.3654,-109.2 653.3654,-109.2 653.3654,-103.2 659.3654,-97.2 665.3654,-97.2"/>
<text text-anchor="middle" x="668.3654" y="-130.2" font-family="Times,serif" font-size="14.00" fill="#000000">•</text>
<polyline fill="none" stroke="#000000" points="653.3654,-122 683.3654,-122 "/>
<text text-anchor="middle" x="668.3654" y="-105.4" font-family="Times,serif" font-size="14.00" fill="#000000">•</text>
<polyline fill="none" stroke="#000000" points="683.3654,-97.2 683.3654,-146.8 "/>
<text text-anchor="middle" x="706.1403" y="-117.8" font-family="Times,serif" font-size="14.00" fill="#000000">XOR</text>
<polyline fill="none" stroke="#000000" points="728.9152,-97.2 728.9152,-146.8 "/>
<text text-anchor="middle" x="743.9152" y="-118.2" font-family="Times,serif" font-size="14.00" fill="#000000">•</text>
</g>
<!-- v58_t0_e76_s0 -->
<g id="node24" class="node">
<title>v58_t0_e76_s0</title>
<ellipse fill="#000000" stroke="#000000" cx="886.0218" cy="-105" rx="3.5" ry="3.5"/>
</g>
<!-- e58&#45;&gt;v58_t0_e76_s0 -->
<g id="edge13" class="edge">
<title>e58:e-&gt;v58_t0_e76_s0:w</title>
<path fill="none" stroke="#000000" d="M759.1403,-122C814.2745,-122 826.8876,-105 882.0218,-105"/>
</g>
<!-- e61 -->
<g id="node8" class="node">
<title>e61</title>
<path fill="none" stroke="#000000" d="M664.9804,-28.2C664.9804,-28.2 747.3002,-28.2 747.3002,-28.2 753.3002,-28.2 759.3002,-34.2 759.3002,-40.2 759.3002,-40.2 759.3002,-65.8 759.3002,-65.8 759.3002,-71.8 753.3002,-77.8 747.3002,-77.8 747.3002,-77.8 664.9804,-77.8 664.9804,-77.8 658.9804,-77.8 652.9804,-71.8 652.9804,-65.8 652.9804,-65.8 652.9804,-40.2 652.9804,-40.2 652.9804,-34.2 658.9804,-28.2 664.9804,-28.2"/>
<text text-anchor="middle" x="667.9804" y="-61.2" font-family="Times,serif" font-size="14.00" fill="#000000">•</text>
<polyline fill="none" stroke="#000000" points="652.9804,-53 682.9804,-53 "/>
<text text-anchor="middle" x="667.9804" y="-36.4" font-family="Times,serif" font-size="14.00" fill="#000000">•</text>
<polyline fill="none" stroke="#000000" points="682.9804,-28.2 682.9804,-77.8 "/>
<text text-anchor="middle" x="706.1403" y="-48.8" font-family="Times,serif" font-size="14.00" fill="#000000">AND</text>
<polyline fill="none" stroke="#000000" points="729.3002,-28.2 729.3002,-77.8 "/>
<text text-anchor="middle" x="744.3002" y="-49.2" font-family="Times,serif" font-size="14.00" fill="#000000">•</text>
</g>
<!-- v61_t0_e73_s0 -->
<g id="node25" class="node">
<title>v61_t0_e73_s0</title>
<ellipse fill="#000000" stroke="#000000" cx="798.8002" cy="-53" rx="3.5" ry="3.5"/>
</g>
<!-- e61&#45;&gt;v61_t0_e73_s0 -->
<g id="edge14" class="edge">
<title>e61:e-&gt;v61_t0_e73_s0:w</title>
<path fill="none" stroke="#000000" d="M759.1403,-53C775.2114,-53 779.2291,-53 795.3002,-53"/>
</g>
<!-- e66 -->
<g id="node9" class="node">
<title>e66</title>
<path fill="none" stroke="#000000" d="M314.1606,-66.2C314.1606,-66.2 396.4804,-66.2 396.4804,-66.2 402.4804,-66.2 408.4804,-72.2 408.4804,-78.2 408.4804,-78.2 408.4804,-103.8 408.4804,-103.8 408.4804,-109.8 402.4804,-115.8 396.4804,-115.8 396.4804,-115.8 314.1606,-115.8 314.1606,-115.8 308.1606,-115.8 302.1606,-109.8 302.1606,-103.8 302.1606,-103.8 302.1606,-78.2 302.1606,-78.2 302.1606,-72.2 308.1606,-66.2 314.1606,-66.2"/>
<text text-anchor="middle" x="317.1606" y="-99.2" font-family="Times,serif" font-size="14.00" fill="#000000">•</text>
<polyline fill="none" stroke="#000000" points="302.1606,-91 332.1606,-91 "/>
<text text-anchor="middle" x="317.1606" y="-74.4" font-family="Times,serif" font-size="14.00" fill="#000000">•</text>
<polyline fill="none" stroke="#000000" points="332.1606,-66.2 332.1606,-115.8 "/>
<text text-anchor="middle" x="355.3205" y="-86.8" font-family="Times,serif" font-size="14.00" fill="#000000">AND</text>
<polyline fill="none" stroke="#000000" points="378.4804,-66.2 378.4804,-115.8 "/>
<text text-anchor="middle" x="393.4804" y="-87.2" font-family="Times,serif" font-size="14.00" fill="#000000">•</text>
</g>
<!-- v66_t0_e73_s1 -->
<g id="node26" class="node">
<title>v66_t0_e73_s1</title>
<ellipse fill="#000000" stroke="#000000" cx="798.8002" cy="-14" rx="3.5" ry="3.5"/>
</g>
<!-- e66&#45;&gt;v66_t0_e73_s1 -->
<g id="edge15" class="edge">
<title>e66:e-&gt;v66_t0_e73_s1:w</title>
<path fill="none" stroke="#000000" d="M408.3205,-91C455.8787,-91 447.5957,-44.9036 487.4804,-19 505.0881,-7.5645 509.7351,0 530.7304,0 530.7304,0 530.7304,0 613.4804,0 694.5284,0 714.2522,-14 795.3002,-14"/>
</g>
<!-- e73 -->
<g id="node10" class="node">
<title>e73</title>
<path fill="none" stroke="#000000" d="M850.3002,-16.2C850.3002,-16.2 921.7434,-16.2 921.7434,-16.2 927.7434,-16.2 933.7434,-22.2 933.7434,-28.2 933.7434,-28.2 933.7434,-53.8 933.7434,-53.8 933.7434,-59.8 927.7434,-65.8 921.7434,-65.8 921.7434,-65.8 850.3002,-65.8 850.3002,-65.8 844.3002,-65.8 838.3002,-59.8 838.3002,-53.8 838.3002,-53.8 838.3002,-28.2 838.3002,-28.2 838.3002,-22.2 844.3002,-16.2 850.3002,-16.2"/>
<text text-anchor="middle" x="853.3002" y="-49.2" font-family="Times,serif" font-size="14.00" fill="#000000">•</text>
<polyline fill="none" stroke="#000000" points="838.3002,-41 868.3002,-41 "/>
<text text-anchor="middle" x="853.3002" y="-24.4" font-family="Times,serif" font-size="14.00" fill="#000000">•</text>
<polyline fill="none" stroke="#000000" points="868.3002,-16.2 868.3002,-65.8 "/>
<text text-anchor="middle" x="886.0218" y="-36.8" font-family="Times,serif" font-size="14.00" fill="#000000">OR</text>
<polyline fill="none" stroke="#000000" points="903.7434,-16.2 903.7434,-65.8 "/>
<text text-anchor="middle" x="918.7434" y="-37.2" font-family="Times,serif" font-size="14.00" fill="#000000">•</text>
</g>
<!-- v73_t0_e76_s1 -->
<g id="node27" class="node">
<title>v73_t0_e76_s1</title>
<ellipse fill="#000000" stroke="#000000" cx="973.2434" cy="-57" rx="3.5" ry="3.5"/>
</g>
<!-- e73&#45;&gt;v73_t0_e76_s1 -->
<g id="edge16" class="edge">
<title>e73:e-&gt;v73_t0_e76_s1:w</title>
<path fill="none" stroke="#000000" d="M933.7434,-41C951.2525,-41 952.2343,-57 969.7434,-57"/>
</g>
<!-- e76 -->
<g id="node11" class="node">
<title>e76</title>
<path fill="none" stroke="#000000" d="M1024.7434,-48.2C1024.7434,-48.2 1054.904,-48.2 1054.904,-48.2 1060.904,-48.2 1066.904,-54.2 1066.904,-60.2 1066.904,-60.2 1066.904,-85.8 1066.904,-85.8 1066.904,-91.8 1060.904,-97.8 1054.904,-97.8 1054.904,-97.8 1024.7434,-97.8 1024.7434,-97.8 1018.7434,-97.8 1012.7434,-91.8 1012.7434,-85.8 1012.7434,-85.8 1012.7434,-60.2 1012.7434,-60.2 1012.7434,-54.2 1018.7434,-48.2 1024.7434,-48.2"/>
<text text-anchor="middle" x="1027.7434" y="-81.2" font-family="Times,serif" font-size="14.00" fill="#000000">•</text>
<polyline fill="none" stroke="#000000" points="1012.7434,-73 1042.7434,-73 "/>
<text text-anchor="middle" x="1027.7434" y="-56.4" font-family="Times,serif" font-size="14.00" fill="#000000">•</text>
<polyline fill="none" stroke="#000000" points="1042.7434,-48.2 1042.7434,-97.8 "/>
<text text-anchor="middle" x="1054.8237" y="-68.8" font-family="Times,serif" font-size="14.00" fill="#000000">$\omega$</text>
</g>
<!-- v0_t0_e1_s0&#45;&gt;e1 -->
<g id="edge17" class="edge">
<title>v0_t0_e1_s0:e-&gt;e1:w</title>
<path fill="none" stroke="#000000" d="M100.6606,-138C117.5926,-138 118.1482,-155.7582 131.7538,-159.3653"/>
<polygon fill="#000000" stroke="#000000" points="136.9106,-160 131.6732,-161.6223 134.4293,-159.6946 131.948,-159.3891 131.948,-159.3891 131.948,-159.3891 134.4293,-159.6946 132.2229,-157.156 136.9106,-160 136.9106,-160"/>
</g>
<!-- v0_t1_e4_s0&#45;&gt;e4 -->
<g id="edge18" class="edge">
<title>v0_t1_e4_s0:e-&gt;e4:w</title>
<path fill="none" stroke="#000000" d="M100.6606,-91C114.8837,-91 119.6895,-91 131.7055,-91"/>
<polygon fill="#000000" stroke="#000000" points="136.9106,-91 131.9106,-93.2501 134.4106,-91 131.9106,-91.0001 131.9106,-91.0001 131.9106,-91.0001 134.4106,-91 131.9106,-88.7501 136.9106,-91 136.9106,-91"/>
</g>
<!-- v0_t2_e39_s0&#45;&gt;e39 -->
<g id="edge19" class="edge">
<title>v0_t2_e39_s0:e-&gt;e39:w</title>
<path fill="none" stroke="#000000" d="M100.6606,-52C172.929,-52 190.3922,-38 262.6606,-38 262.6606,-38 262.6606,-38 355.3205,-38 412.8106,-38 427.6484,-52.134 482.6393,-52.9621"/>
<polygon fill="#000000" stroke="#000000" points="487.7304,-53 482.7138,-55.2126 485.2305,-52.9814 482.7305,-52.9627 482.7305,-52.9627 482.7305,-52.9627 485.2305,-52.9814 482.7473,-50.7128 487.7304,-53 487.7304,-53"/>
</g>
<!-- v1_t0_e29_s0&#45;&gt;e29 -->
<g id="edge20" class="edge">
<title>v1_t0_e29_s0:e-&gt;e29:w</title>
<path fill="none" stroke="#000000" d="M266.1606,-172C280.3483,-172 285.1422,-172 297.1283,-172"/>
<polygon fill="#000000" stroke="#000000" points="302.3205,-172 297.3205,-174.2501 299.8205,-172 297.3205,-172.0001 297.3205,-172.0001 297.3205,-172.0001 299.8205,-172 297.3205,-169.7501 302.3205,-172 302.3205,-172"/>
</g>
<!-- v1_t1_e66_s0&#45;&gt;e66 -->
<g id="edge21" class="edge">
<title>v1_t1_e66_s0:e-&gt;e66:w</title>
<path fill="none" stroke="#000000" d="M266.1606,-143C288.2535,-143 279.9764,-109.0059 297.3239,-103.6943"/>
<polygon fill="#000000" stroke="#000000" points="302.3205,-103 297.6778,-105.9168 299.8443,-103.3441 297.3681,-103.6882 297.3681,-103.6882 297.3681,-103.6882 299.8443,-103.3441 297.0584,-101.4596 302.3205,-103 302.3205,-103"/>
</g>
<!-- v4_t0_e29_s1&#45;&gt;e29 -->
<g id="edge22" class="edge">
<title>v4_t0_e29_s1:e-&gt;e29:w</title>
<path fill="none" stroke="#000000" d="M266.1606,-109C287.7666,-109 280.3369,-141.5849 296.9523,-147.1854"/>
<polygon fill="#000000" stroke="#000000" points="302.3205,-148 297.0395,-149.4743 299.8488,-147.6249 297.3771,-147.2498 297.3771,-147.2498 297.3771,-147.2498 299.8488,-147.6249 297.7147,-145.0253 302.3205,-148 302.3205,-148"/>
</g>
<!-- v4_t1_e66_s1&#45;&gt;e66 -->
<g id="edge23" class="edge">
<title>v4_t1_e66_s1:e-&gt;e66:w</title>
<path fill="none" stroke="#000000" d="M266.1606,-79C280.3483,-79 285.1422,-79 297.1283,-79"/>
<polygon fill="#000000" stroke="#000000" points="302.3205,-79 297.3205,-81.2501 299.8205,-79 297.3205,-79.0001 297.3205,-79.0001 297.3205,-79.0001 299.8205,-79 297.3205,-76.7501 302.3205,-79 302.3205,-79"/>
</g>
<!-- v29_t0_e36_s0&#45;&gt;e36 -->
<g id="edge24" class="edge">
<title>v29_t0_e36_s0:e-&gt;e36:w</title>
<path fill="none" stroke="#000000" d="M451.4804,-141C467.823,-141 469.3778,-125.6634 482.7167,-122.5481"/>
<polygon fill="#000000" stroke="#000000" points="487.7304,-122 483.0046,-124.7802 485.2452,-122.2717 482.76,-122.5435 482.76,-122.5435 482.76,-122.5435 485.2452,-122.2717 482.5154,-120.3068 487.7304,-122 487.7304,-122"/>
</g>
<!-- v36_t0_e58_s0&#45;&gt;e58 -->
<g id="edge25" class="edge">
<title>v36_t0_e58_s0:e-&gt;e58:w</title>
<path fill="none" stroke="#000000" d="M616.9804,-134C631.1681,-134 635.962,-134 647.9481,-134"/>
<polygon fill="#000000" stroke="#000000" points="653.1403,-134 648.1403,-136.2501 650.6403,-134 648.1403,-134.0001 648.1403,-134.0001 648.1403,-134.0001 650.6403,-134 648.1403,-131.7501 653.1403,-134 653.1403,-134"/>
</g>
<!-- v36_t1_e61_s0&#45;&gt;e61 -->
<g id="edge26" class="edge">
<title>v36_t1_e61_s0:e-&gt;e61:w</title>
<path fill="none" stroke="#000000" d="M616.9804,-105C639.0733,-105 630.7962,-71.0059 648.1437,-65.6943"/>
<polygon fill="#000000" stroke="#000000" points="653.1403,-65 648.4976,-67.9168 650.6641,-65.3441 648.1879,-65.6882 648.1879,-65.6882 648.1879,-65.6882 650.6641,-65.3441 647.8782,-63.4596 653.1403,-65 653.1403,-65"/>
</g>
<!-- v39_t0_e58_s1&#45;&gt;e58 -->
<g id="edge27" class="edge">
<title>v39_t0_e58_s1:e-&gt;e58:w</title>
<path fill="none" stroke="#000000" d="M616.9804,-75C637.4247,-75 632.0189,-104.2429 648.0202,-109.269"/>
<polygon fill="#000000" stroke="#000000" points="653.1403,-110 647.8724,-111.5206 650.6654,-109.6466 648.1905,-109.2932 648.1905,-109.2932 648.1905,-109.2932 650.6654,-109.6466 648.5086,-107.0658 653.1403,-110 653.1403,-110"/>
</g>
<!-- v39_t1_e61_s1&#45;&gt;e61 -->
<g id="edge28" class="edge">
<title>v39_t1_e61_s1:e-&gt;e61:w</title>
<path fill="none" stroke="#000000" d="M616.9804,-41C631.1681,-41 635.962,-41 647.9481,-41"/>
<polygon fill="#000000" stroke="#000000" points="653.1403,-41 648.1403,-43.2501 650.6403,-41 648.1403,-41.0001 648.1403,-41.0001 648.1403,-41.0001 650.6403,-41 648.1403,-38.7501 653.1403,-41 653.1403,-41"/>
</g>
<!-- v58_t0_e76_s0&#45;&gt;e76 -->
<g id="edge29" class="edge">
<title>v58_t0_e76_s0:e-&gt;e76:w</title>
<path fill="none" stroke="#000000" d="M890.0218,-105C943.5915,-105 956.721,-86.2305 1007.7632,-85.0574"/>
<polygon fill="#000000" stroke="#000000" points="1012.8237,-85 1007.8496,-87.3066 1010.3239,-85.0284 1007.824,-85.0568 1007.824,-85.0568 1007.824,-85.0568 1010.3239,-85.0284 1007.7985,-82.8069 1012.8237,-85 1012.8237,-85"/>
</g>
<!-- v61_t0_e73_s0&#45;&gt;e73 -->
<g id="edge30" class="edge">
<title>v61_t0_e73_s0:e-&gt;e73:w</title>
<path fill="none" stroke="#000000" d="M802.3002,-53C816.4252,-53 821.1979,-53 833.131,-53"/>
<polygon fill="#000000" stroke="#000000" points="838.3002,-53 833.3002,-55.2501 835.8002,-53 833.3002,-53.0001 833.3002,-53.0001 833.3002,-53.0001 835.8002,-53 833.3002,-50.7501 838.3002,-53 838.3002,-53"/>
</g>
<!-- v66_t0_e73_s1&#45;&gt;e73 -->
<g id="edge31" class="edge">
<title>v66_t0_e73_s1:e-&gt;e73:w</title>
<path fill="none" stroke="#000000" d="M802.3002,-14C817.7377,-14 820.4838,-25.8982 833.145,-28.5009"/>
<polygon fill="#000000" stroke="#000000" points="838.3002,-29 833.1066,-30.7576 835.8118,-28.7591 833.3235,-28.5181 833.3235,-28.5181 833.3235,-28.5181 835.8118,-28.7591 833.5403,-26.2786 838.3002,-29 838.3002,-29"/>
</g>
<!-- v73_t0_e76_s1&#45;&gt;e76 -->
<g id="edge32" class="edge">
<title>v73_t0_e76_s1:e-&gt;e76:w</title>
<path fill="none" stroke="#000000" d="M976.7434,-57C990.9866,-57 995.627,-60.1174 1007.6196,-60.8481"/>
<polygon fill="#000000" stroke="#000000" points="1012.8237,-61 1007.7601,-63.103 1010.3248,-60.927 1007.8258,-60.854 1007.8258,-60.854 1007.8258,-60.854 1010.3248,-60.927 1007.8915,-58.605 1012.8237,-61 1012.8237,-61"/>
</g>
</g>
</svg>